<?xml version="1.0" encoding="UTF-8" standalone="no"?>
<!-- Created with Inkscape (http://www.inkscape.org/) -->

<svg
   version="1.1"
   id="svg184"
   width="122.112"
   height="284.54401"
   viewBox="0 0 122.112 284.54401"
   sodipodi:docname="dot2.svg"
   inkscape:version="1.2 (dc2aedaf03, 2022-05-15)"
   xmlns:inkscape="http://www.inkscape.org/namespaces/inkscape"
   xmlns:sodipodi="http://sodipodi.sourceforge.net/DTD/sodipodi-0.dtd"
   xmlns="http://www.w3.org/2000/svg"
   xmlns:svg="http://www.w3.org/2000/svg">
  <defs
     id="defs188" />
  <sodipodi:namedview
     id="namedview186"
     pagecolor="#ffffff"
     bordercolor="#000000"
     borderopacity="0.25"
     inkscape:showpageshadow="2"
     inkscape:pageopacity="0.0"
     inkscape:pagecheckerboard="0"
     inkscape:deskcolor="#d1d1d1"
     showgrid="false"
     inkscape:zoom="1.7642262"
     inkscape:cx="60.93323"
     inkscape:cy="142.27201"
     inkscape:window-width="1366"
     inkscape:window-height="705"
     inkscape:window-x="-8"
     inkscape:window-y="-8"
     inkscape:window-maximized="1"
     inkscape:current-layer="g190" />
  <g
     inkscape:groupmode="layer"
     inkscape:label="Image"
     id="g190">
    <path
       style="fill:#000000;stroke-width:0.096"
       d="M 1.6289669e-6,256.73918 V 230.6348 L 0.29797163,230.5694 c 0.68626,-0.15073 2.07372997,0.1341 3.15061997,0.64679 1.10692,0.52697 2.10938,1.51956 2.67403,2.6477 0.21897,0.4375 0.42617,0.94491 0.46044,1.12758 0.0343,0.18267 0.0959,0.33212 0.13694,0.33212 0.041,0 0.10267,-0.14945 0.13694,-0.33212 0.13814,-0.73634 0.83398,-1.89852 1.58482,-2.64692 1.19232,-1.18846 2.5854104,-1.7623 4.2782404,-1.7623 1.07912,0 1.70002,0.14426 2.72859,0.63394 1.10692,0.52697 2.10938,1.51956 2.67403,2.6477 0.21897,0.4375 0.42617,0.94491 0.46044,1.12758 0.0343,0.18267 0.0959,0.33212 0.13694,0.33212 0.041,0 0.10267,-0.14945 0.13694,-0.33212 0.13814,-0.73634 0.83398,-1.89852 1.58482,-2.64692 1.19232,-1.18846 2.58541,-1.7623 4.27824,-1.7623 1.07912,0 1.70002,0.14426 2.72859,0.63394 1.10692,0.52697 2.10938,1.51956 2.67403,2.6477 0.21897,0.4375 0.42617,0.94491 0.46044,1.12758 0.0796,0.42429 0.19428,0.42429 0.27388,0 0.13814,-0.73634 0.83398,-1.89852 1.58482,-2.64692 1.19232,-1.18846 2.58541,-1.7623 4.27824,-1.7623 1.07912,0 1.70002,0.14426 2.72859,0.63394 1.10692,0.52697 2.10938,1.51956 2.67403,2.6477 0.21897,0.4375 0.42617,0.94491 0.46044,1.12758 0.0343,0.18267 0.0959,0.33212 0.13694,0.33212 0.041,0 0.10267,-0.14945 0.13694,-0.33212 0.13814,-0.73634 0.83398,-1.89852 1.58482,-2.64692 1.19232,-1.18846 2.585406,-1.7623 4.278241,-1.7623 1.079122,0 1.700023,0.14426 2.728594,0.63394 1.106914,0.52697 2.109372,1.51956 2.674021,2.6477 0.218977,0.4375 0.426179,0.94491 0.460447,1.12758 0.0796,0.42429 0.19428,0.42429 0.273876,0 0.138138,-0.73634 0.83398,-1.89852 1.584825,-2.64692 1.192313,-1.18846 2.585402,-1.7623 4.278237,-1.7623 1.079122,0 1.700023,0.14426 2.728594,0.63394 1.106914,0.52697 2.109372,1.51956 2.674021,2.6477 0.218977,0.4375 0.426179,0.94491 0.460447,1.12758 0.0796,0.42429 0.19428,0.42429 0.273876,0 0.138138,-0.73634 0.83398,-1.89852 1.584825,-2.64692 1.192313,-1.18846 2.585402,-1.7623 4.278237,-1.7623 1.079122,0 1.700023,0.14426 2.728594,0.63394 1.106914,0.52697 2.109372,1.51956 2.674021,2.6477 0.218977,0.4375 0.426179,0.94491 0.460447,1.12758 0.0796,0.42429 0.19428,0.42429 0.273876,0 0.138138,-0.73634 0.83398,-1.89852 1.584825,-2.64692 1.192313,-1.18846 2.585402,-1.7623 4.278237,-1.7623 1.079122,0 1.700023,0.14426 2.728594,0.63394 1.106914,0.52697 2.109372,1.51956 2.674021,2.6477 0.218977,0.4375 0.426179,0.94491 0.460447,1.12758 0.0796,0.42429 0.19428,0.42429 0.273876,0 0.03427,-0.18267 0.241344,-0.69027 0.460168,-1.128 0.554222,-1.10867 1.553513,-2.09539 2.673866,-2.64022 1.018439,-0.49529 1.638791,-0.641 2.729028,-0.641 1.079117,0 1.700026,0.14426 2.728589,0.63394 1.106918,0.52697 2.109378,1.51956 2.674018,2.6477 0.21899,0.4375 0.42618,0.94491 0.46046,1.12758 0.0343,0.18267 0.0959,0.33212 0.13693,0.33212 0.041,0 0.10267,-0.14945 0.13693,-0.33212 0.13815,-0.73634 0.83399,-1.89852 1.58483,-2.64692 1.19232,-1.18846 2.5854,-1.7623 4.27824,-1.7623 1.07912,0 1.70003,0.14426 2.72859,0.63394 1.10692,0.52697 2.10938,1.51956 2.67402,2.6477 0.21899,0.4375 0.42618,0.94491 0.46046,1.12758 0.0796,0.42429 0.19427,0.42429 0.27386,0 0.0343,-0.18267 0.24147,-0.69008 0.46046,-1.12758 0.75689,-1.51223 2.35357,-2.76942 4.01061,-3.15786 0.57118,-0.13389 2.09256,-0.1676 2.52,-0.0558 l 0.264,0.069 v 26.06217 26.06217 H 61.056003 1.6289669e-6 Z M 7.1881516,278.73955 l 0.48846,-0.456 -0.47831,-0.49687 -0.4783,-0.49685 -0.47735,0.49685 -0.47735,0.49687 0.45335,0.44187 c 0.24934,0.24302 0.45958,0.44822 0.46719,0.456 0.008,0.008 0.23366,-0.19107 0.50231,-0.44187 z m 12.0000004,0 0.48846,-0.456 -0.47831,-0.49687 -0.4783,-0.49685 -0.47622,0.49685 -0.47622,0.49687 0.45222,0.44624 c 0.24872,0.24543 0.45845,0.45063 0.46606,0.456 0.008,0.005 0.23366,-0.19544 0.50231,-0.44624 z m 12,0 0.48846,-0.456 -0.47831,-0.49687 -0.4783,-0.49685 -0.47735,0.49685 -0.47735,0.49687 0.45335,0.44187 c 0.24934,0.24302 0.45958,0.44822 0.46719,0.456 0.008,0.008 0.23366,-0.19107 0.50231,-0.44187 z m 12,0 0.48846,-0.456 -0.47831,-0.49687 -0.4783,-0.49685 -0.47735,0.49685 -0.47735,0.49687 0.45335,0.44187 c 0.24934,0.24302 0.45958,0.44822 0.46719,0.456 0.008,0.008 0.23366,-0.19107 0.50231,-0.44187 z m 11.999998,0 0.488459,-0.456 -0.478302,-0.49687 -0.478304,-0.49685 -0.47735,0.49685 -0.47735,0.49687 0.45335,0.44187 c 0.249342,0.24302 0.459579,0.44822 0.467194,0.456 0.0076,0.008 0.233651,-0.19107 0.502303,-0.44187 z m 12,0 0.488459,-0.456 -0.478302,-0.49687 -0.478304,-0.49685 -0.47735,0.49685 -0.47735,0.49687 0.45335,0.44187 c 0.249342,0.24302 0.459579,0.44822 0.467194,0.456 0.0076,0.008 0.233651,-0.19107 0.502303,-0.44187 z m 12,0 0.488459,-0.456 -0.478302,-0.49687 -0.478304,-0.49685 -0.47735,0.49685 -0.47735,0.49687 0.45335,0.44187 c 0.249342,0.24302 0.459579,0.44822 0.467194,0.456 0.0076,0.008 0.233651,-0.19107 0.502303,-0.44187 z m 12,0 0.488459,-0.456 -0.478302,-0.49687 -0.478304,-0.49685 -0.47735,0.49685 -0.47735,0.49687 0.45335,0.44187 c 0.249342,0.24302 0.459579,0.44822 0.467194,0.456 0.0076,0.008 0.233651,-0.19107 0.502303,-0.44187 z m 11.99999,0 0.48847,-0.456 -0.47831,-0.49687 -0.4783,-0.49685 -0.47735,0.49685 -0.47735,0.49687 0.45335,0.44187 c 0.24934,0.24302 0.45958,0.44822 0.46719,0.456 0.008,0.008 0.23366,-0.19107 0.5023,-0.44187 z m 12,0 0.48847,-0.456 -0.47831,-0.49687 -0.4783,-0.49685 -0.47622,0.49685 -0.47622,0.49687 0.45222,0.44624 c 0.24872,0.24543 0.45845,0.45063 0.46606,0.456 0.008,0.005 0.23366,-0.19544 0.5023,-0.44624 z M 7.2443216,267.45534 c 0.26603,-0.27952 0.65648,-0.64379 0.86768,-0.8095 l 0.384,-0.30128 -0.5348,-0.47886 c -0.29415,-0.26337 -0.68295,-0.69718 -0.864,-0.96403 -0.18106,-0.26684 -0.35228,-0.48628 -0.3805,-0.48764 -0.0282,-0.001 -0.13353,0.13673 -0.23404,0.30687 -0.1005,0.17014 -0.48312,0.60973 -0.85027,0.97688 l -0.66752,0.66752 0.37356,0.28856 c 0.20547,0.15871 0.58957,0.51615 0.85357,0.79432 0.264,0.27817 0.49995,0.50793 0.52432,0.51057 0.0244,0.003 0.26198,-0.22389 0.528,-0.50341 z m 11.9959704,-0.002 c 0.26824,-0.28055 0.66051,-0.64482 0.87171,-0.8095 l 0.384,-0.2994 -0.5348,-0.47886 c -0.29415,-0.26337 -0.68295,-0.69718 -0.864,-0.96403 -0.18106,-0.26685 -0.3508,-0.48517 -0.3772,-0.48517 -0.0264,0 -0.19614,0.21832 -0.3772,0.48517 -0.18105,0.26685 -0.56985,0.70066 -0.864,0.96403 l -0.5348,0.47886 0.384,0.29974 c 0.2112,0.16486 0.6,0.52806 0.864,0.80714 0.264,0.27906 0.49813,0.50844 0.52029,0.50975 0.0222,10e-4 0.25976,-0.22718 0.528,-0.50773 z m 12,0 c 0.26824,-0.28055 0.66051,-0.64482 0.87171,-0.8095 l 0.384,-0.2994 -0.5348,-0.47886 c -0.29415,-0.26337 -0.68295,-0.69718 -0.864,-0.96403 -0.18106,-0.26685 -0.3508,-0.48517 -0.3772,-0.48517 -0.0264,0 -0.19614,0.21832 -0.3772,0.48517 -0.18105,0.26685 -0.56985,0.70066 -0.864,0.96403 l -0.5348,0.47886 0.384,0.29893 c 0.2112,0.16441 0.6,0.52652 0.864,0.80469 0.264,0.27817 0.49813,0.50793 0.52029,0.51057 0.0222,0.003 0.25976,-0.22474 0.528,-0.50529 z m 12,0 c 0.26824,-0.28055 0.65582,-0.64015 0.86128,-0.79912 l 0.37357,-0.28904 -0.66753,-0.66753 c -0.36714,-0.36714 -0.74976,-0.80673 -0.85027,-0.97687 -0.1005,-0.17014 -0.20582,-0.30824 -0.23404,-0.30688 -0.0282,10e-4 -0.19944,0.2208 -0.3805,0.48765 -0.18105,0.26685 -0.56985,0.70066 -0.864,0.96403 l -0.5348,0.47886 0.384,0.29893 c 0.2112,0.16441 0.6,0.52652 0.864,0.80469 0.264,0.27817 0.49813,0.50793 0.52029,0.51057 0.0222,0.003 0.25976,-0.22474 0.528,-0.50529 z m 12.000002,0 c 0.268241,-0.28055 0.660509,-0.64482 0.871709,-0.8095 l 0.384,-0.2994 -0.534804,-0.47886 c -0.294144,-0.26337 -0.682944,-0.69718 -0.864,-0.96403 -0.181058,-0.26685 -0.350796,-0.48517 -0.377196,-0.48517 -0.0264,0 -0.196138,0.21832 -0.377196,0.48517 -0.181056,0.26685 -0.569856,0.70066 -0.864,0.96403 l -0.534804,0.47886 0.384,0.29893 c 0.2112,0.16441 0.6,0.52652 0.864,0.80469 0.264,0.27817 0.498132,0.50793 0.520291,0.51057 0.02216,0.003 0.259761,-0.22474 0.528,-0.50529 z m 12,0 c 0.268241,-0.28055 0.660509,-0.64482 0.871709,-0.8095 l 0.384,-0.2994 -0.534804,-0.47886 c -0.294144,-0.26337 -0.682944,-0.69718 -0.864,-0.96403 -0.181058,-0.26685 -0.350796,-0.48517 -0.377196,-0.48517 -0.0264,0 -0.196138,0.21832 -0.377196,0.48517 -0.181056,0.26685 -0.569856,0.70066 -0.864,0.96403 l -0.534804,0.47886 0.384,0.29893 c 0.2112,0.16441 0.6,0.52652 0.864,0.80469 0.264,0.27817 0.498132,0.50793 0.520291,0.51057 0.02216,0.003 0.259761,-0.22474 0.528,-0.50529 z m 12,0 c 0.268241,-0.28055 0.660509,-0.64482 0.871709,-0.8095 l 0.384,-0.2994 -0.534804,-0.47886 c -0.294144,-0.26337 -0.682944,-0.69718 -0.864,-0.96403 -0.181058,-0.26685 -0.350796,-0.48517 -0.377196,-0.48517 -0.0264,0 -0.196138,0.21832 -0.377196,0.48517 -0.181056,0.26685 -0.569856,0.70066 -0.864,0.96403 l -0.534804,0.47886 0.384,0.29893 c 0.2112,0.16441 0.6,0.52652 0.864,0.80469 0.264,0.27817 0.498132,0.50793 0.520291,0.51057 0.02216,0.003 0.259761,-0.22474 0.528,-0.50529 z m 12,0 c 0.268241,-0.28055 0.660509,-0.64482 0.871709,-0.8095 l 0.384,-0.2994 -0.534804,-0.47886 c -0.294144,-0.26337 -0.682944,-0.69718 -0.864,-0.96403 -0.181058,-0.26685 -0.350796,-0.48517 -0.377196,-0.48517 -0.0264,0 -0.196138,0.21832 -0.377196,0.48517 -0.181056,0.26685 -0.569856,0.70066 -0.864,0.96403 l -0.534804,0.47886 0.384,0.29893 c 0.2112,0.16441 0.6,0.52652 0.864,0.80469 0.264,0.27817 0.498132,0.50793 0.520291,0.51057 0.02216,0.003 0.259761,-0.22474 0.528,-0.50529 z m 12.004026,0.002 c 0.26603,-0.27952 0.65648,-0.64379 0.86768,-0.8095 l 0.384,-0.30128 -0.53481,-0.47886 c -0.29414,-0.26337 -0.68294,-0.69718 -0.864,-0.96403 -0.18105,-0.26684 -0.35228,-0.48628 -0.38049,-0.48764 -0.0282,-0.001 -0.13354,0.13673 -0.23404,0.30687 -0.1005,0.17014 -0.48312,0.60973 -0.85026,0.97688 l -0.66754,0.66752 0.37358,0.28856 c 0.20545,0.15871 0.58956,0.51615 0.85356,0.79432 0.264,0.27817 0.49995,0.50793 0.52432,0.51057 0.0244,0.003 0.26198,-0.22389 0.528,-0.50341 z m 11.99597,-0.002 c 0.26824,-0.28055 0.66051,-0.64482 0.87171,-0.8095 l 0.384,-0.2994 -0.53481,-0.47886 c -0.29414,-0.26337 -0.68294,-0.69718 -0.864,-0.96403 -0.18105,-0.26685 -0.35079,-0.48517 -0.37719,-0.48517 -0.0264,0 -0.19614,0.21832 -0.37719,0.48517 -0.18106,0.26685 -0.56986,0.70066 -0.864,0.96403 l -0.53481,0.47886 0.384,0.29974 c 0.2112,0.16486 0.6,0.52806 0.864,0.80714 0.264,0.27906 0.49813,0.50844 0.52029,0.50975 0.0222,10e-4 0.25976,-0.22718 0.528,-0.50773 z M 7.0515916,256.44992 c 0.35317,-0.50962 1.26183,-1.36525 1.83776,-1.73049 0.25886,-0.16417 0.44993,-0.3294 0.42461,-0.36718 -0.0253,-0.0378 -0.28856,-0.24723 -0.58498,-0.46544 -0.65892,-0.48508 -1.28561,-1.19624 -1.68533,-1.91251 l -0.30035,-0.53822 -0.35436,0.58335 c -0.46328,0.76263 -1.16557,1.5235 -1.8261,1.97843 -0.29196,0.20108 -0.53084,0.37592 -0.53084,0.38852 0,0.0126 0.19538,0.13743 0.43418,0.27737 0.53979,0.31634 1.55808,1.2607 1.91544,1.77637 0.14767,0.21308 0.29994,0.38743 0.33838,0.38743 0.0384,0 0.18765,-0.16993 0.33159,-0.37763 z m 12.0000004,0 c 0.35317,-0.50962 1.26183,-1.36525 1.83776,-1.73049 0.25886,-0.16417 0.44993,-0.3294 0.42461,-0.36718 -0.0253,-0.0378 -0.28856,-0.24723 -0.58498,-0.46544 -0.65892,-0.48508 -1.28561,-1.19624 -1.68533,-1.91251 l -0.30035,-0.53822 -0.35437,0.58335 c -0.46327,0.76263 -1.16556,1.5235 -1.82609,1.97843 -0.29196,0.20108 -0.53084,0.37592 -0.53084,0.38852 0,0.0126 0.19736,0.13858 0.43858,0.27995 0.53927,0.31603 1.69486,1.39392 1.96771,1.8354 0.11075,0.1792 0.23517,0.32582 0.27648,0.32582 0.0413,0 0.19288,-0.16993 0.33682,-0.37763 z m 12,0 c 0.35317,-0.50962 1.26183,-1.36525 1.83776,-1.73049 0.25886,-0.16417 0.44993,-0.3294 0.42461,-0.36718 -0.0253,-0.0378 -0.28856,-0.24723 -0.58498,-0.46544 -0.65892,-0.48508 -1.28561,-1.19624 -1.68533,-1.91251 l -0.30035,-0.53822 -0.35437,0.58335 c -0.46327,0.76263 -1.16556,1.5235 -1.82609,1.97843 -0.29196,0.20108 -0.53084,0.37592 -0.53084,0.38852 0,0.0126 0.19736,0.13858 0.43858,0.27995 0.53927,0.31603 1.69486,1.39392 1.96771,1.8354 0.11075,0.1792 0.23517,0.32582 0.27648,0.32582 0.0413,0 0.19288,-0.16993 0.33682,-0.37763 z m 12,0 c 0.35317,-0.50962 1.26183,-1.36525 1.83776,-1.73049 0.25886,-0.16417 0.44993,-0.3294 0.42461,-0.36718 -0.0253,-0.0378 -0.28856,-0.24723 -0.58498,-0.46544 -0.65892,-0.48508 -1.28561,-1.19624 -1.68533,-1.91251 l -0.30035,-0.53822 -0.35437,0.58335 c -0.46327,0.76263 -1.16556,1.5235 -1.82609,1.97843 -0.29196,0.20108 -0.53084,0.37592 -0.53084,0.38852 0,0.0126 0.19736,0.13858 0.43858,0.27995 0.53927,0.31603 1.69486,1.39392 1.96771,1.8354 0.11075,0.1792 0.23517,0.32582 0.27648,0.32582 0.0413,0 0.19288,-0.16993 0.33682,-0.37763 z m 11.999996,0 c 0.353171,-0.50962 1.261835,-1.36525 1.837763,-1.73049 0.258859,-0.16417 0.449933,-0.3294 0.424611,-0.36718 -0.02532,-0.0378 -0.288561,-0.24723 -0.584976,-0.46544 -0.658927,-0.48508 -1.285611,-1.19624 -1.685335,-1.91251 l -0.300352,-0.53822 -0.354362,0.58335 c -0.463275,0.76263 -1.165562,1.5235 -1.826095,1.97843 -0.291962,0.20108 -0.530839,0.37592 -0.530839,0.38852 0,0.0126 0.197359,0.13858 0.438575,0.27995 0.539271,0.31603 1.694868,1.39392 1.967713,1.8354 0.110754,0.1792 0.235173,0.32582 0.276486,0.32582 0.04131,0 0.192877,-0.16993 0.336811,-0.37763 z m 12,0 c 0.353171,-0.50962 1.261835,-1.36525 1.837763,-1.73049 0.258859,-0.16417 0.449933,-0.3294 0.424611,-0.36718 -0.02532,-0.0378 -0.288561,-0.24723 -0.584976,-0.46544 -0.658927,-0.48508 -1.285611,-1.19624 -1.685335,-1.91251 l -0.300352,-0.53822 -0.354362,0.58335 c -0.463275,0.76263 -1.165562,1.5235 -1.826095,1.97843 -0.291962,0.20108 -0.530839,0.37592 -0.530839,0.38852 0,0.0126 0.197359,0.13858 0.438575,0.27995 0.539271,0.31603 1.694868,1.39392 1.967713,1.8354 0.110754,0.1792 0.235173,0.32582 0.276486,0.32582 0.04131,0 0.192877,-0.16993 0.336811,-0.37763 z m 12,0 c 0.353171,-0.50962 1.261835,-1.36525 1.837763,-1.73049 0.258859,-0.16417 0.449933,-0.3294 0.424611,-0.36718 -0.02532,-0.0378 -0.288561,-0.24723 -0.584976,-0.46544 -0.658927,-0.48508 -1.285611,-1.19624 -1.685335,-1.91251 l -0.300352,-0.53822 -0.354362,0.58335 c -0.463275,0.76263 -1.165562,1.5235 -1.826095,1.97843 -0.291962,0.20108 -0.530839,0.37592 -0.530839,0.38852 0,0.0126 0.197359,0.13858 0.438575,0.27995 0.539271,0.31603 1.694868,1.39392 1.967713,1.8354 0.110754,0.1792 0.235173,0.32582 0.276486,0.32582 0.04131,0 0.192877,-0.16993 0.336811,-0.37763 z m 12,0 c 0.353171,-0.50962 1.261835,-1.36525 1.837763,-1.73049 0.258859,-0.16417 0.449933,-0.3294 0.424611,-0.36718 -0.02532,-0.0378 -0.288561,-0.24723 -0.584976,-0.46544 -0.658927,-0.48508 -1.285611,-1.19624 -1.685335,-1.91251 l -0.300352,-0.53822 -0.354362,0.58335 c -0.463275,0.76263 -1.165562,1.5235 -1.826095,1.97843 -0.291962,0.20108 -0.530839,0.37592 -0.530839,0.38852 0,0.0126 0.197359,0.13858 0.438575,0.27995 0.539271,0.31603 1.694868,1.39392 1.967713,1.8354 0.110754,0.1792 0.235173,0.32582 0.276486,0.32582 0.04131,0 0.192877,-0.16993 0.336811,-0.37763 z m 11.999992,0 c 0.35318,-0.50962 1.26184,-1.36525 1.83777,-1.73049 0.25885,-0.16417 0.44993,-0.3294 0.42461,-0.36718 -0.0253,-0.0378 -0.28856,-0.24723 -0.58498,-0.46544 -0.65892,-0.48508 -1.28561,-1.19624 -1.68534,-1.91251 l -0.30034,-0.53822 -0.35437,0.58335 c -0.46327,0.76263 -1.16556,1.5235 -1.82609,1.97843 -0.29196,0.20108 -0.53084,0.37592 -0.53084,0.38852 0,0.0126 0.19538,0.13743 0.43418,0.27737 0.53979,0.31634 1.55808,1.2607 1.91544,1.77637 0.14768,0.21308 0.29994,0.38743 0.33838,0.38743 0.0384,0 0.18765,-0.16993 0.33158,-0.37763 z m 12,0 c 0.35318,-0.50962 1.26184,-1.36525 1.83777,-1.73049 0.25885,-0.16417 0.44993,-0.3294 0.42461,-0.36718 -0.0253,-0.0378 -0.28856,-0.24723 -0.58498,-0.46544 -0.65892,-0.48508 -1.28561,-1.19624 -1.68534,-1.91251 l -0.30034,-0.53822 -0.35437,0.58335 c -0.46327,0.76263 -1.16556,1.5235 -1.82609,1.97843 -0.29196,0.20108 -0.53084,0.37592 -0.53084,0.38852 0,0.0126 0.19736,0.13858 0.43858,0.27995 0.53927,0.31603 1.69487,1.39392 1.96771,1.8354 0.11075,0.1792 0.23517,0.32582 0.27649,0.32582 0.0413,0 0.19287,-0.16993 0.3368,-0.37763 z M 7.0432016,245.29737 c 0.5819,-1.03602 2.02451,-2.30084 3.1167004,-2.73259 l 0.4159,-0.1644 -0.5891004,-0.31475 c -0.86976,-0.46471 -1.58134,-1.04932 -2.08251,-1.71093 -0.49023,-0.64717 -0.93963,-1.55334 -1.04262,-2.10235 -0.0632,-0.33692 -0.23757,-0.4136 -0.23757,-0.10447 0,0.32588 -0.60828,1.56547 -1.06866,2.17779 -0.53493,0.71149 -1.18567,1.25035 -2.09966,1.73869 l -0.58622,0.31321 0.47865,0.19892 c 0.65597,0.27261 1.50476,0.86399 2.05584,1.43238 0.50757,0.52351 1.08884,1.3045 1.17652,1.58077 0.0864,0.2721 0.1639,0.21978 0.46273,-0.31227 z m 12.0000004,0 c 0.5819,-1.03602 2.02451,-2.30084 3.1167,-2.73259 l 0.4159,-0.1644 -0.5891,-0.31475 c -0.86976,-0.46471 -1.58134,-1.04932 -2.08251,-1.71093 -0.49023,-0.64717 -0.93963,-1.55334 -1.04262,-2.10235 -0.0632,-0.33692 -0.23757,-0.4136 -0.23757,-0.10447 0,0.32588 -0.60828,1.56547 -1.06866,2.17779 -0.53539,0.7121 -1.18569,1.25036 -2.10229,1.74009 l -0.58885,0.31462 0.4159,0.16486 c 0.49707,0.19704 1.20668,0.64021 1.74422,1.08931 0.46948,0.39224 1.27578,1.3792 1.48476,1.81744 0.0828,0.17356 0.17488,0.31551 0.2047,0.31546 0.0298,-5e-5 0.17806,-0.22059 0.32942,-0.49008 z m 12,0 c 0.5819,-1.03602 2.02451,-2.30084 3.1167,-2.73259 l 0.4159,-0.1644 -0.59371,-0.31721 c -0.79696,-0.42582 -1.38073,-0.89272 -1.94294,-1.55396 -0.50722,-0.59658 -1.07414,-1.68017 -1.17865,-2.25282 -0.062,-0.33979 -0.2365,-0.41983 -0.2365,-0.10851 0,0.32588 -0.60828,1.56547 -1.06866,2.17779 -0.53539,0.7121 -1.18569,1.25036 -2.10229,1.74009 l -0.58885,0.31462 0.4159,0.16486 c 0.49707,0.19704 1.20668,0.64021 1.74422,1.08931 0.46948,0.39224 1.27578,1.3792 1.48476,1.81744 0.0828,0.17356 0.17488,0.31551 0.2047,0.31546 0.0298,-5e-5 0.17806,-0.22059 0.32942,-0.49008 z m 12,0 c 0.5819,-1.03602 2.02451,-2.30084 3.1167,-2.73259 l 0.4159,-0.1644 -0.59371,-0.31721 c -0.8126,-0.43417 -1.401,-0.90386 -1.94727,-1.55441 -0.50475,-0.60109 -1.07126,-1.68768 -1.17432,-2.25237 -0.062,-0.33979 -0.2365,-0.41983 -0.2365,-0.10851 0,0.32588 -0.60828,1.56547 -1.06866,2.17779 -0.53539,0.7121 -1.18569,1.25036 -2.10229,1.74009 l -0.58885,0.31462 0.4159,0.16486 c 0.49707,0.19704 1.20668,0.64021 1.74422,1.08931 0.46948,0.39224 1.27578,1.3792 1.48476,1.81744 0.0828,0.17356 0.17488,0.31551 0.2047,0.31546 0.0298,-5e-5 0.17806,-0.22059 0.32942,-0.49008 z m 12.000001,0 c 0.581896,-1.03602 2.024506,-2.30084 3.116701,-2.73259 l 0.415901,-0.1644 -0.589099,-0.31475 c -0.869764,-0.46471 -1.581345,-1.04932 -2.08251,-1.71093 -0.490502,-0.64753 -0.939641,-1.5534 -1.042782,-2.10319 -0.07114,-0.37922 -0.237411,-0.48938 -0.237411,-0.15729 0,0.37331 -0.576205,1.57647 -1.068659,2.23145 -0.534932,0.71149 -1.185668,1.25035 -2.099664,1.73869 l -0.58622,0.31321 0.478656,0.19892 c 0.655965,0.27261 1.504758,0.86399 2.055832,1.43238 0.507577,0.52351 1.088843,1.3045 1.176527,1.58077 0.08636,0.2721 0.1639,0.21978 0.462728,-0.31227 z m 12,0 c 0.581896,-1.03602 2.024506,-2.30084 3.116701,-2.73259 l 0.415901,-0.1644 -0.589099,-0.31475 c -0.869764,-0.46471 -1.581345,-1.04932 -2.08251,-1.71093 -0.490231,-0.64717 -0.939629,-1.55334 -1.042625,-2.10235 -0.06321,-0.33692 -0.237568,-0.4136 -0.237568,-0.10447 0,0.32588 -0.608277,1.56547 -1.068659,2.17779 -0.535895,0.71276 -1.18572,1.25037 -2.105161,1.74163 l -0.591718,0.31614 0.429864,0.16417 c 0.556117,0.21238 1.411748,0.78282 1.96905,1.31274 0.488936,0.46491 1.226704,1.42559 1.319613,1.71832 0.09005,0.28373 0.164735,0.23547 0.466211,-0.3013 z m 12,0 c 0.581896,-1.03602 2.024506,-2.30084 3.116701,-2.73259 l 0.415901,-0.1644 -0.589099,-0.31475 c -0.869764,-0.46471 -1.581345,-1.04932 -2.08251,-1.71093 -0.490502,-0.64753 -0.939641,-1.5534 -1.042782,-2.10319 -0.07114,-0.37922 -0.237411,-0.48938 -0.237411,-0.15729 0,0.37331 -0.576205,1.57647 -1.068659,2.23145 -0.534932,0.71149 -1.185668,1.25035 -2.099664,1.73869 l -0.58622,0.31321 0.478656,0.19892 c 0.655965,0.27261 1.504758,0.86399 2.055832,1.43238 0.507577,0.52351 1.088843,1.3045 1.176527,1.58077 0.08636,0.2721 0.1639,0.21978 0.462728,-0.31227 z m 12,0 c 0.581896,-1.03602 2.024506,-2.30084 3.116701,-2.73259 l 0.415901,-0.1644 -0.58807,-0.3142 c -1.000458,-0.53454 -1.72867,-1.16899 -2.307702,-2.01058 -0.365243,-0.53087 -0.731534,-1.33989 -0.819893,-1.81088 -0.06212,-0.33113 -0.236137,-0.40249 -0.236137,-0.0968 0,0.32588 -0.608277,1.56547 -1.068659,2.17779 -0.535393,0.7121 -1.185693,1.25036 -2.102293,1.74009 l -0.58885,0.31462 0.415901,0.16486 c 0.497071,0.19704 1.206677,0.64021 1.744222,1.08931 0.469477,0.39224 1.275779,1.3792 1.484758,1.81744 0.08276,0.17356 0.174881,0.31551 0.204701,0.31546 0.02982,-5e-5 0.17806,-0.22059 0.32942,-0.49008 z m 11.999997,0 c 0.5819,-1.03602 2.02451,-2.30084 3.1167,-2.73259 l 0.4159,-0.1644 -0.58909,-0.31475 c -0.86977,-0.46471 -1.58135,-1.04932 -2.08252,-1.71093 -0.49023,-0.64717 -0.93963,-1.55334 -1.04262,-2.10235 -0.0632,-0.33692 -0.23757,-0.4136 -0.23757,-0.10447 0,0.32588 -0.60828,1.56547 -1.06866,2.17779 -0.53493,0.71149 -1.18567,1.25035 -2.099663,1.73869 l -0.586215,0.31321 0.478656,0.19892 c 0.655962,0.27261 1.504752,0.86399 2.055832,1.43238 0.50757,0.52351 1.08884,1.3045 1.17652,1.58077 0.0864,0.2721 0.1639,0.21978 0.46273,-0.31227 z m 12,0 c 0.5819,-1.03602 2.02451,-2.30084 3.1167,-2.73259 l 0.4159,-0.1644 -0.58909,-0.31475 c -0.86977,-0.46471 -1.58135,-1.04932 -2.08252,-1.71093 -0.49023,-0.64717 -0.93963,-1.55334 -1.04262,-2.10235 -0.0632,-0.33692 -0.23757,-0.4136 -0.23757,-0.10447 0,0.32588 -0.60828,1.56547 -1.06866,2.17779 -0.53539,0.7121 -1.18569,1.25036 -2.1023,1.74009 l -0.58884,0.31462 0.4159,0.16486 c 0.49707,0.19704 1.20668,0.64021 1.74422,1.08931 0.46948,0.39224 1.27578,1.3792 1.48476,1.81744 0.0828,0.17356 0.17488,0.31551 0.2047,0.31546 0.0298,-5e-5 0.17806,-0.22059 0.32942,-0.49008 z M 0.02323163,224.64355 l 0.0248,-5.592 0.53727,-0.0284 c 0.76325997,-0.0403 1.84074997,0.20805 2.67872997,0.61736 0.53427,0.26096 0.90573,0.54023 1.44,1.08259 1.20042,1.21859 1.69544,2.52556 1.60307,4.2324 -0.0808,1.49372 -0.60506,2.67251 -1.64364,3.696 -1.03848,1.0234 -2.41381,1.584 -3.88605997,1.584 h -0.77892 z m 11.16077037,5.41252 c -1.3094704,-0.37695 -2.3528004,-1.13988 -3.1129004,-2.27633 -1.1541,-1.72552 -1.27593,-3.90211 -0.32135,-5.74132 0.92587,-1.78391 2.9713904,-3.03154 4.9702504,-3.03154 2.54898,0 4.88972,1.86981 5.48123,4.37848 0.31411,1.33217 0.0511,2.96333 -0.68081,4.22167 -0.63615,1.09377 -2.05696,2.13648 -3.37428,2.47634 -0.78044,0.20135 -2.21371,0.18814 -2.96214,-0.0273 z m 12,0 c -1.30947,-0.37695 -2.3528,-1.13988 -3.1129,-2.27633 -1.1541,-1.72552 -1.27593,-3.90211 -0.32135,-5.74132 0.92587,-1.78391 2.97139,-3.03154 4.97025,-3.03154 2.54898,0 4.88972,1.86981 5.48123,4.37848 0.31411,1.33217 0.0511,2.96333 -0.68081,4.22167 -0.63615,1.09377 -2.05696,2.13648 -3.37428,2.47634 -0.78044,0.20135 -2.21371,0.18814 -2.96214,-0.0273 z m 12,0 c -1.30947,-0.37695 -2.3528,-1.13988 -3.1129,-2.27633 -1.1541,-1.72552 -1.27593,-3.90211 -0.32135,-5.74132 0.92587,-1.78391 2.97139,-3.03154 4.97025,-3.03154 2.54898,0 4.88972,1.86981 5.48123,4.37848 0.31411,1.33217 0.0511,2.96333 -0.68081,4.22167 -0.63615,1.09377 -2.05696,2.13648 -3.37428,2.47634 -0.78044,0.20135 -2.21371,0.18814 -2.96214,-0.0273 z m 12.000001,0 c -1.764371,-0.50789 -3.260951,-1.94564 -3.803111,-3.6536 -0.27765,-0.8747 -0.3386,-2.17981 -0.14102,-3.02005 0.36636,-1.55804 1.544,-3.05831 2.93613,-3.74052 1.68442,-0.82546 3.399307,-0.82588 5.088001,-0.001 0.940093,0.45907 2.022756,1.53251 2.47102,2.44997 0.859815,1.75978 0.780215,3.80597 -0.214598,5.51641 -0.63615,1.09377 -2.05696,2.13648 -3.374279,2.47634 -0.780443,0.20135 -2.213712,0.18814 -2.962143,-0.0273 z m 12,0 c -1.30947,-0.37695 -2.352797,-1.13988 -3.112899,-2.27633 -1.1541,-1.72552 -1.275929,-3.90211 -0.321353,-5.74132 0.925875,-1.78391 2.971389,-3.03154 4.970252,-3.03154 2.548981,0 4.889718,1.86981 5.481231,4.37848 0.314107,1.33217 0.05106,2.96333 -0.680809,4.22167 -0.63615,1.09377 -2.05696,2.13648 -3.374279,2.47634 -0.780443,0.20135 -2.213712,0.18814 -2.962143,-0.0273 z m 12,0 c -1.30947,-0.37695 -2.352797,-1.13988 -3.112899,-2.27633 -1.1541,-1.72552 -1.275929,-3.90211 -0.321353,-5.74132 0.925875,-1.78391 2.971389,-3.03154 4.970252,-3.03154 2.548981,0 4.889718,1.86981 5.481231,4.37848 0.314107,1.33217 0.05106,2.96333 -0.680809,4.22167 -0.63615,1.09377 -2.05696,2.13648 -3.374279,2.47634 -0.780443,0.20135 -2.213712,0.18814 -2.962143,-0.0273 z m 12,0 c -1.30947,-0.37695 -2.352797,-1.13988 -3.112899,-2.27633 -1.1541,-1.72552 -1.275929,-3.90211 -0.321353,-5.74132 0.925875,-1.78391 2.971389,-3.03154 4.970252,-3.03154 2.548981,0 4.889718,1.86981 5.481231,4.37848 0.314107,1.33217 0.05106,2.96333 -0.680809,4.22167 -0.63615,1.09377 -2.05696,2.13648 -3.374279,2.47634 -0.780443,0.20135 -2.213712,0.18814 -2.962143,-0.0273 z m 12,0 c -1.30947,-0.37695 -2.352797,-1.13988 -3.112899,-2.27633 -1.1541,-1.72552 -1.275929,-3.90211 -0.321353,-5.74132 0.925875,-1.78391 2.971389,-3.03154 4.970252,-3.03154 2.548982,0 4.889717,1.86981 5.481237,4.37848 0.3141,1.33217 0.0511,2.96333 -0.68082,4.22167 -0.63615,1.09377 -2.056958,2.13648 -3.37427,2.47634 -0.780451,0.20135 -2.213716,0.18814 -2.962147,-0.0273 z m 11.999997,0 c -1.30947,-0.37695 -2.3528,-1.13988 -3.1129,-2.27633 -1.1541,-1.72552 -1.27593,-3.90211 -0.32136,-5.74132 0.92589,-1.78391 2.9714,-3.03154 4.97026,-3.03154 2.54898,0 4.88972,1.86981 5.48124,4.37848 0.3141,1.33217 0.0511,2.96333 -0.68082,4.22167 -0.63615,1.09377 -2.05696,2.13648 -3.37427,2.47634 -0.78045,0.20135 -2.21371,0.18814 -2.96215,-0.0273 z m 12,0 c -1.30947,-0.37695 -2.3528,-1.13988 -3.1129,-2.27633 -1.1541,-1.72552 -1.27593,-3.90211 -0.32136,-5.74132 0.99586,-1.91873 3.18533,-3.15589 5.31064,-3.00078 0.3984,0.0291 0.798,0.0811 0.888,0.11566 0.1515,0.0581 0.16362,0.46635 0.16362,5.51252 v 5.44973 l -0.3,0.06 c -0.5773,0.11546 -2.04338,0.0488 -2.628,-0.11948 z M 0.36000163,217.77375 1.6289668e-6,217.74395 v -5.13021 -5.1302 L 0.64800163,207.48454 c 2.40423997,0.005 4.47293997,1.59232 5.06107997,3.88275 0.44799,1.74464 -0.0664,3.62824 -1.33892,4.90299 -0.56373,0.5647 -1.58586,1.1844 -2.21016,1.33997 -0.43984,0.10962 -1.39755997,0.19638 -1.79999997,0.16307 z m 11.73600037,-0.0326 c -3.5144604,-0.35792 -5.5388004,-4.16872 -3.9613404,-7.45719 0.35423,-0.73843 1.43651,-1.82247 2.2083504,-2.21193 2.98189,-1.50461 6.54251,0.0885 7.36607,3.29569 0.5881,2.29029 -0.50953,4.7605 -2.58908,5.82667 -0.99068,0.50791 -1.86074,0.66522 -3.024,0.54676 z m 12,0 c -2.05974,-0.20977 -3.83434,-1.75299 -4.35992,-3.79146 -0.71503,-2.77328 1.02711,-5.66619 3.80693,-6.32161 2.70881,-0.63866 5.47215,1.03727 6.16607,3.73964 0.5881,2.29029 -0.50953,4.7605 -2.58908,5.82667 -0.99068,0.50791 -1.86074,0.66522 -3.024,0.54676 z m 12,0 c -3.51711,-0.35819 -5.53998,-4.16624 -3.96134,-7.45719 0.35422,-0.73843 1.43651,-1.82247 2.20835,-2.21193 2.98189,-1.50461 6.54251,0.0885 7.36607,3.29569 0.5881,2.29029 -0.50953,4.7605 -2.58908,5.82667 -0.99068,0.50791 -1.86074,0.66522 -3.024,0.54676 z m 12.000001,0 c -3.517111,-0.35819 -5.539981,-4.16624 -3.961341,-7.45719 0.35422,-0.73843 1.43651,-1.82247 2.20835,-2.21193 2.981891,-1.50461 6.54251,0.0885 7.366068,3.29569 0.588107,2.29029 -0.509529,4.7605 -2.589077,5.82667 -0.990678,0.50791 -1.86074,0.66522 -3.024,0.54676 z m 12,0 c -3.517111,-0.35819 -5.539985,-4.16624 -3.961336,-7.45719 0.35422,-0.73843 1.436505,-1.82247 2.20835,-2.21193 2.981886,-1.50461 6.542505,0.0885 7.366063,3.29569 0.588107,2.29029 -0.509529,4.7605 -2.589077,5.82667 -0.990678,0.50791 -1.86074,0.66522 -3.024,0.54676 z m 12,0 c -3.517111,-0.35819 -5.539985,-4.16624 -3.961336,-7.45719 0.35422,-0.73843 1.436505,-1.82247 2.20835,-2.21193 2.981886,-1.50461 6.542505,0.0885 7.366063,3.29569 0.588107,2.29029 -0.509529,4.7605 -2.589077,5.82667 -0.990678,0.50791 -1.86074,0.66522 -3.024,0.54676 z m 12,0 c -3.514462,-0.35792 -5.538797,-4.16872 -3.961336,-7.45719 0.357336,-0.74493 1.436158,-1.8223 2.221624,-2.21863 2.96597,-1.49659 6.51734,0.0989 7.350843,3.30239 0.59365,2.28165 -0.506823,4.76011 -2.587131,5.82667 -0.990678,0.50791 -1.86074,0.66522 -3.024,0.54676 z m 12,0 c -3.517111,-0.35819 -5.539985,-4.16624 -3.961336,-7.45719 0.35422,-0.73843 1.436505,-1.82247 2.20835,-2.21193 2.981882,-1.50461 6.542503,0.0885 7.366063,3.29569 0.58811,2.29029 -0.50953,4.7605 -2.589077,5.82667 -0.990682,0.50791 -1.860739,0.66522 -3.024,0.54676 z m 11.999997,0 c -3.51446,-0.35792 -5.5388,-4.16872 -3.96133,-7.45719 0.35422,-0.73843 1.4365,-1.82247 2.20834,-2.21193 2.98189,-1.50461 6.54251,0.0885 7.36607,3.29569 0.58811,2.29029 -0.50953,4.7605 -2.58908,5.82667 -0.99068,0.50791 -1.86074,0.66522 -3.024,0.54676 z m 12,9.6e-4 c -2.06177,-0.21216 -3.83441,-1.75394 -4.35992,-3.79211 -0.86774,-3.36557 1.83689,-6.66667 5.27192,-6.43461 0.4224,0.0285 0.8436,0.0809 0.936,0.11645 0.15701,0.0603 0.168,0.39009 0.168,5.0404 v 4.97585 l -0.408,0.0503 c -0.82693,0.10199 -0.99676,0.1066 -1.608,0.0437 z M 1.6289669e-6,200.65496 v -4.71658 L 1.0054316,195.98308 c 0.91609,0.0407 1.06812,0.0757 1.71077,0.39331 0.8535,0.42183 1.46699,0.94515 1.93559,1.65113 2.09293,3.15313 -0.18966,7.34402 -3.99995997,7.34402 H 1.6289669e-6 Z M 11.530782,205.21982 c -1.8303004,-0.49224 -3.2063904,-2.03385 -3.4766404,-3.89484 -0.28269,-1.94668 0.73521,-3.95423 2.4578604,-4.84748 0.82261,-0.42655 1.44387,-0.54637 2.5553,-0.49285 0.8475,0.0408 1.0236,0.0827 1.65145,0.39301 0.85107,0.42063 1.46482,0.94447 1.93304,1.64987 1.23393,1.859 0.99592,4.34755 -0.5676,5.93462 -1.15342,1.1708 -2.99009,1.67809 -4.55341,1.25767 z m 12,0 c -2.3373,-0.62859 -3.86423,-2.96391 -3.4692,-5.30591 0.24456,-1.44992 1.19798,-2.78698 2.45042,-3.43641 0.82261,-0.42655 1.44387,-0.54637 2.5553,-0.49285 0.8475,0.0408 1.0236,0.0827 1.65145,0.39301 0.85107,0.42063 1.46482,0.94447 1.93304,1.64987 1.23393,1.859 0.99592,4.34755 -0.5676,5.93462 -1.15342,1.1708 -2.99009,1.67809 -4.55341,1.25767 z m 12,0 c -1.8303,-0.49224 -3.20639,-2.03385 -3.47664,-3.89484 -0.28269,-1.94668 0.7352,-3.95423 2.45786,-4.84748 0.82261,-0.42655 1.44387,-0.54637 2.5553,-0.49285 0.8475,0.0408 1.0236,0.0827 1.65145,0.39301 0.85107,0.42063 1.46482,0.94447 1.93304,1.64987 1.23393,1.859 0.99592,4.34755 -0.5676,5.93462 -1.15342,1.1708 -2.99009,1.67809 -4.55341,1.25767 z m 12.000005,0 c -1.830305,-0.49224 -3.206395,-2.03385 -3.476645,-3.89484 -0.28269,-1.94668 0.7352,-3.95423 2.45786,-4.84748 0.822615,-0.42655 1.44387,-0.54637 2.555299,-0.49285 0.847506,0.0408 1.023604,0.0827 1.651448,0.39301 1.602268,0.79189 2.540579,2.13635 2.707377,3.87927 0.303683,3.17331 -2.808322,5.79309 -5.895339,4.96289 z m 12,0 c -1.830306,-0.49224 -3.206398,-2.03385 -3.476645,-3.89484 -0.282693,-1.94668 0.735205,-3.95423 2.457861,-4.84748 0.822614,-0.42655 1.443869,-0.54637 2.555298,-0.49285 0.847506,0.0408 1.023604,0.0827 1.651448,0.39301 0.851069,0.42063 1.46482,0.94447 1.93304,1.64987 1.233934,1.859 0.995927,4.34755 -0.567592,5.93462 -1.153423,1.1708 -2.990098,1.67809 -4.55341,1.25767 z m 12,0 c -1.830306,-0.49224 -3.206398,-2.03385 -3.476645,-3.89484 -0.282693,-1.94668 0.735205,-3.95423 2.457861,-4.84748 0.822614,-0.42655 1.443869,-0.54637 2.555298,-0.49285 0.847506,0.0408 1.023604,0.0827 1.651448,0.39301 0.851069,0.42063 1.46482,0.94447 1.93304,1.64987 1.233934,1.859 0.995927,4.34755 -0.567592,5.93462 -1.153423,1.1708 -2.990098,1.67809 -4.55341,1.25767 z m 12,0 c -1.830306,-0.49224 -3.206398,-2.03385 -3.476645,-3.89484 -0.282693,-1.94668 0.735205,-3.95423 2.457861,-4.84748 0.822614,-0.42655 1.443869,-0.54637 2.555298,-0.49285 0.847506,0.0408 1.023604,0.0827 1.651448,0.39301 0.851069,0.42063 1.46482,0.94447 1.93304,1.64987 1.233934,1.859 0.995927,4.34755 -0.567592,5.93462 -1.153423,1.1708 -2.990098,1.67809 -4.55341,1.25767 z m 12,0 c -1.830306,-0.49224 -3.206398,-2.03385 -3.476645,-3.89484 -0.282693,-1.94668 0.735205,-3.95423 2.457861,-4.84748 0.822614,-0.42655 1.443869,-0.54637 2.555299,-0.49285 0.847507,0.0408 1.0236,0.0827 1.65145,0.39301 1.602268,0.79189 2.540568,2.13635 2.707368,3.87927 0.30368,3.17327 -2.808351,5.79308 -5.895333,4.96289 z m 11.999993,0 c -1.83031,-0.49224 -3.2064,-2.03385 -3.47664,-3.89484 -0.28269,-1.94668 0.73521,-3.95423 2.45786,-4.84748 0.82261,-0.42655 1.44387,-0.54637 2.5553,-0.49285 0.84751,0.0408 1.0236,0.0827 1.65145,0.39301 0.85107,0.42063 1.46481,0.94447 1.93304,1.64987 1.23393,1.859 0.99592,4.34755 -0.56759,5.93462 -1.15343,1.1708 -2.99011,1.67809 -4.55342,1.25767 z m 12,0.006 c -2.35604,-0.66133 -3.86414,-2.97051 -3.4692,-5.31199 0.30758,-1.8236 1.67257,-3.35756 3.39604,-3.81645 0.51674,-0.13759 1.67799,-0.17417 2.29438,-0.0723 l 0.36,0.0595 v 4.53717 c 0,4.23084 -0.0113,4.54182 -0.168,4.60614 -0.35621,0.14623 -1.88955,0.14491 -2.41322,-0.002 z M 0.02299163,188.65475 l 0.025,-4.2592 0.816,0.0118 c 2.32312997,0.0335 4.12799997,1.87012 4.12799997,4.20066 0,1.73871 -0.91911,3.19721 -2.47456,3.9268 -0.55383,0.25979 -0.77843,0.30818 -1.58244997,0.34098 l -0.937,0.0382 z m 11.44901037,4.10728 c -1.02289,-0.33792 -1.7766404,-0.91732 -2.3568704,-1.81171 -0.79736,-1.22909 -0.89036,-2.84793 -0.23928,-4.16531 1.2193604,-2.46719 4.2257604,-3.18042 6.4632204,-1.5333 1.02685,0.75594 1.65293,2.02717 1.65293,3.35626 0,1.73834 -0.91792,3.19532 -2.47456,3.92775 -0.57844,0.27217 -0.75008,0.30627 -1.65344,0.32844 -0.64235,0.0158 -1.1473,-0.0213 -1.392,-0.10213 z m 12,0 c -1.02289,-0.33792 -1.77664,-0.91732 -2.35687,-1.81171 -0.79736,-1.22909 -0.89036,-2.84793 -0.23928,-4.16531 1.21936,-2.46719 4.22576,-3.18042 6.46322,-1.5333 1.02685,0.75594 1.65293,2.02717 1.65293,3.35626 0,1.73834 -0.91792,3.19532 -2.47456,3.92775 -0.57844,0.27217 -0.75008,0.30627 -1.65344,0.32844 -0.64235,0.0158 -1.1473,-0.0213 -1.392,-0.10213 z m 12,0 c -1.02289,-0.33792 -1.77664,-0.91732 -2.35687,-1.81171 -0.79736,-1.22909 -0.89036,-2.84793 -0.23928,-4.16531 1.21936,-2.46719 4.22576,-3.18042 6.46322,-1.5333 1.02685,0.75594 1.65293,2.02717 1.65293,3.35626 0,1.73834 -0.91792,3.19532 -2.47456,3.92775 -0.57844,0.27217 -0.75008,0.30627 -1.65344,0.32844 -0.64235,0.0158 -1.1473,-0.0213 -1.392,-0.10213 z m 12.000001,0 c -1.022891,-0.33792 -1.776641,-0.91732 -2.356871,-1.81171 -0.79736,-1.22909 -0.89036,-2.84793 -0.23928,-4.16531 1.67004,-3.37909 6.478979,-3.16738 7.871531,0.34654 0.09416,0.2376 0.193231,0.80158 0.220159,1.2533 0.109097,1.83009 -0.802206,3.37553 -2.44672,4.1493 -0.582228,0.27393 -0.752274,0.30781 -1.656819,0.33001 -0.642347,0.0158 -1.147297,-0.0213 -1.392,-0.10213 z m 12,0 c -1.022892,-0.33792 -1.776638,-0.91732 -2.35687,-1.81171 -0.797363,-1.22909 -0.890358,-2.84793 -0.239278,-4.16531 1.22395,-2.4765 4.254488,-3.18624 6.475628,-1.51658 1.034748,0.77784 1.64052,2.01098 1.64052,3.33954 0,1.73834 -0.917923,3.19532 -2.47456,3.92775 -0.578437,0.27217 -0.75008,0.30627 -1.65344,0.32844 -0.642347,0.0158 -1.147297,-0.0213 -1.392,-0.10213 z m 12,0 c -1.022892,-0.33792 -1.776638,-0.91732 -2.35687,-1.81171 -0.797363,-1.22909 -0.890358,-2.84793 -0.239278,-4.16531 1.670035,-3.37909 6.478976,-3.16738 7.871528,0.34654 0.09416,0.2376 0.193231,0.80158 0.220159,1.2533 0.109097,1.83009 -0.802206,3.37553 -2.44672,4.1493 -0.582228,0.27393 -0.752274,0.30781 -1.656819,0.33001 -0.642347,0.0158 -1.147297,-0.0213 -1.392,-0.10213 z m 12,0 c -1.022892,-0.33792 -1.776638,-0.91732 -2.35687,-1.81171 -0.796923,-1.22841 -0.890312,-2.84803 -0.240083,-4.16368 1.669926,-3.37887 6.480132,-3.16812 7.872333,0.34491 0.09416,0.2376 0.193231,0.80158 0.220159,1.2533 0.109097,1.83009 -0.802206,3.37553 -2.44672,4.1493 -0.582228,0.27393 -0.752274,0.30781 -1.656819,0.33001 -0.642347,0.0158 -1.147297,-0.0213 -1.392,-0.10213 z m 12,0 c -1.022892,-0.33792 -1.776638,-0.91732 -2.35687,-1.81171 -0.797363,-1.22909 -0.890358,-2.84793 -0.239278,-4.16531 1.219354,-2.46719 4.225758,-3.18042 6.46321,-1.5333 1.026865,0.75594 1.652935,2.02717 1.652935,3.35626 0,1.73834 -0.91792,3.19532 -2.47456,3.92775 -0.578439,0.27217 -0.750077,0.30627 -1.653437,0.32844 -0.642346,0.0158 -1.147297,-0.0213 -1.392,-0.10213 z m 11.999997,0 c -1.02289,-0.33792 -1.77663,-0.91732 -2.35687,-1.81171 -0.79736,-1.22909 -0.89036,-2.84793 -0.23928,-4.16531 1.21936,-2.46719 4.22576,-3.18042 6.46321,-1.5333 1.02687,0.75594 1.65294,2.02717 1.65294,3.35626 0,1.73834 -0.91792,3.19532 -2.47456,3.92775 -0.57844,0.27217 -0.75008,0.30627 -1.65344,0.32844 -0.64235,0.0158 -1.1473,-0.0213 -1.392,-0.10213 z m 12,0 c -1.02289,-0.33792 -1.77663,-0.91732 -2.35687,-1.81171 -0.79736,-1.22909 -0.89036,-2.84793 -0.23928,-4.16531 0.89441,-1.80971 2.80913,-2.75006 4.75143,-2.33351 l 0.48472,0.10395 v 4.06638 c 0,3.14869 -0.0271,4.08349 -0.12,4.14217 -0.21474,0.13563 -2.10799,0.13415 -2.52,-0.002 z M 0.16800163,180.54318 C 0.01159163,180.49688 1.6289669e-6,180.22572 1.6289669e-6,176.61251 v -3.88096 H 0.65458163 c 1.59194997,0 3.00013997,0.88365 3.64489997,2.28719 0.33409,0.72727 0.40981,1.99068 0.16729,2.79165 -0.33415,1.10363 -1.26442,2.10257 -2.33318,2.5054 -0.50416,0.19002 -1.64561997,0.32207 -1.96558997,0.22739 z m 11.74035037,-0.0387 c -1.14355,-0.23966 -2.2042304,-1.08909 -2.7202604,-2.1785 -0.28869,-0.60949 -0.30809,-0.71691 -0.30809,-1.70643 0,-0.94286 0.0274,-1.11438 0.2554,-1.60081 1.4203704,-3.02993 5.7736204,-3.02671 7.1665004,0.005 0.3316,0.72181 0.40653,1.98821 0.16487,2.78636 -0.33415,1.10363 -1.26442,2.10257 -2.33318,2.5054 -0.60106,0.22654 -1.62875,0.31368 -2.22524,0.18868 z m 12,0 c -1.14355,-0.23964 -2.20423,-1.08907 -2.72026,-2.17848 -0.28869,-0.60951 -0.30809,-0.71693 -0.30809,-1.70645 0,-0.94286 0.0274,-1.11438 0.2554,-1.60081 1.20367,-2.56767 4.58141,-3.07517 6.51385,-0.97871 0.61813,0.67058 0.89267,1.36239 0.94184,2.37338 0.0503,1.03321 -0.12652,1.70569 -0.64855,2.46712 -0.86726,1.26497 -2.53794,1.9375 -4.03419,1.62393 z m 12,0 c -1.14355,-0.23964 -2.20423,-1.08907 -2.72026,-2.17848 -0.28869,-0.60951 -0.30809,-0.71693 -0.30809,-1.70645 0,-0.94286 0.0274,-1.11438 0.2554,-1.60081 1.20367,-2.56767 4.58141,-3.07517 6.51385,-0.97871 0.61813,0.67058 0.89267,1.36239 0.94184,2.37338 0.0503,1.03321 -0.12652,1.70569 -0.64855,2.46712 -0.86726,1.26497 -2.53794,1.9375 -4.03419,1.62393 z m 12.026906,0.005 c -1.165516,-0.24728 -2.231466,-1.09437 -2.747166,-2.18309 -0.28869,-0.60948 -0.30809,-0.7169 -0.30809,-1.70642 0,-0.94286 0.0274,-1.11438 0.2554,-1.60081 1.42019,-3.02954 5.773798,-3.02633 7.166501,0.005 0.331597,0.72181 0.406531,1.98821 0.164872,2.78636 -0.334153,1.10363 -1.264423,2.10257 -2.33318,2.5054 -0.592249,0.22322 -1.628002,0.31428 -2.198337,0.19327 z m 11.973094,-0.005 c -1.143551,-0.23964 -2.204226,-1.08907 -2.720258,-2.17848 -0.288696,-0.60951 -0.308091,-0.71693 -0.308091,-1.70645 0,-0.94286 0.02736,-1.11438 0.255399,-1.60081 1.203671,-2.56767 4.58141,-3.07517 6.513854,-0.97871 0.618131,0.67058 0.892663,1.36239 0.941838,2.37338 0.05026,1.03321 -0.126525,1.70569 -0.648551,2.46712 -0.867256,1.26497 -2.537943,1.9375 -4.034191,1.62393 z m 12,0 c -1.143551,-0.23964 -2.204226,-1.08907 -2.720258,-2.17848 -0.288696,-0.60951 -0.308091,-0.71693 -0.308091,-1.70645 0,-0.94286 0.02737,-1.11438 0.255399,-1.60081 1.203671,-2.56767 4.58141,-3.07517 6.513854,-0.97871 0.639319,0.69358 0.895987,1.3588 0.939711,2.43552 0.03091,0.76125 0.0027,1.00307 -0.170474,1.46296 -0.585329,1.55412 -1.834394,2.50334 -3.436898,2.61186 -0.355076,0.024 -0.838035,0.003 -1.073243,-0.0459 z m 12,0 c -1.143551,-0.23964 -2.204226,-1.08907 -2.720258,-2.17848 -0.288696,-0.60951 -0.308091,-0.71693 -0.308091,-1.70645 0,-0.97339 0.02201,-1.10083 0.281284,-1.6289 1.257993,-2.56218 4.556941,-3.04555 6.487969,-0.95062 0.618131,0.67058 0.892663,1.36239 0.941838,2.37338 0.05026,1.03321 -0.126525,1.70569 -0.648551,2.46712 -0.867256,1.26497 -2.537943,1.9375 -4.034191,1.62393 z m 12,0 c -1.143551,-0.23964 -2.204226,-1.08907 -2.720258,-2.17848 -0.288696,-0.60951 -0.308091,-0.71693 -0.308091,-1.70645 0,-0.97151 0.02233,-1.10149 0.279106,-1.62445 1.480852,-3.01599 5.750529,-3.00186 7.140371,0.0236 0.33409,0.72727 0.40981,1.99068 0.16729,2.79165 -0.33415,1.10363 -1.264418,2.10257 -2.333177,2.5054 -0.601056,0.22654 -1.628755,0.31368 -2.225241,0.18867 z m 11.999998,0 c -1.14355,-0.23964 -2.20423,-1.08907 -2.72026,-2.17848 -0.2887,-0.60949 -0.30809,-0.71691 -0.30809,-1.70643 0,-0.94286 0.0274,-1.11438 0.2554,-1.60081 1.42038,-3.02993 5.77362,-3.02671 7.1665,0.005 0.3316,0.72181 0.40654,1.98821 0.16487,2.78636 -0.33415,1.10363 -1.26442,2.10257 -2.33318,2.5054 -0.60106,0.22654 -1.62875,0.31368 -2.22524,0.18868 z m 12,0 c -1.14355,-0.23964 -2.20423,-1.08907 -2.72026,-2.17848 -0.2887,-0.60949 -0.30809,-0.71691 -0.30809,-1.70643 0,-0.94286 0.0274,-1.11438 0.2554,-1.60081 0.79742,-1.70106 2.74534,-2.63423 4.55009,-2.1798 l 0.42651,0.1074 v 3.68698 3.68698 l -0.24594,0.0935 c -0.37048,0.14086 -1.47427,0.19198 -1.95771,0.0907 z M 0.12000163,168.16226 C 0.02720163,168.11996 1.6289669e-6,167.31282 1.6289669e-6,164.5998 v -3.50774 L 0.84000163,161.13296 c 1.46012997,0.071 2.43687997,0.69517 3.05951997,1.95499 0.32057,0.64864 0.35285,0.78661 0.35248,1.50682 -5.2e-4,1.03047 -0.25434,1.70883 -0.90629,2.42217 -0.66054,0.72273 -1.45247,1.10607 -2.39584997,1.1597 -0.39042,0.0222 -0.76386,0.0157 -0.82986,-0.0144 z m 11.68122037,-0.0678 c -0.62772,-0.17808 -1.23744,-0.56119 -1.7113,-1.07526 -1.5965704,-1.73208 -1.0186804,-4.61026 1.12322,-5.59418 0.78524,-0.36073 1.9594,-0.41061 2.73985,-0.11641 2.45541,0.92559 3.11121,4.11999 1.21078,5.89762 -0.65873,0.61615 -1.36019,0.92224 -2.22873,0.9725 -0.40655,0.0235 -0.87716,-0.0115 -1.13382,-0.0843 z m 12,0 c -0.62772,-0.17808 -1.23744,-0.56119 -1.7113,-1.07526 -1.59657,-1.73208 -1.01868,-4.61026 1.12322,-5.59418 0.78524,-0.36073 1.9594,-0.41061 2.73985,-0.11641 0.86997,0.32794 1.48532,0.88664 1.92517,1.74795 0.34641,0.67832 0.37414,0.79195 0.3738,1.53183 -4.8e-4,1.03734 -0.25281,1.71356 -0.90625,2.42853 -0.89379,0.97795 -2.34281,1.41845 -3.54449,1.07754 z m 12,0 c -0.62772,-0.17808 -1.23744,-0.56119 -1.7113,-1.07526 -1.59657,-1.73208 -1.01868,-4.61026 1.12322,-5.59418 0.78524,-0.36073 1.9594,-0.41061 2.73985,-0.11641 0.86997,0.32794 1.48532,0.88664 1.92517,1.74795 0.34641,0.67832 0.37414,0.79195 0.3738,1.53183 -4.8e-4,1.03734 -0.25281,1.71356 -0.90625,2.42853 -0.89379,0.97795 -2.34281,1.41845 -3.54449,1.07754 z m 11.999999,0 c -0.627717,-0.17808 -1.237439,-0.56119 -1.711299,-1.07526 -1.59657,-1.73208 -1.01868,-4.61026 1.123217,-5.59418 0.785248,-0.36073 1.959401,-0.41061 2.739856,-0.11641 0.869972,0.32794 1.485318,0.88664 1.925169,1.74795 0.346405,0.67832 0.374134,0.79195 0.373801,1.53183 -4.8e-4,1.03734 -0.252811,1.71356 -0.906256,2.42853 -0.893788,0.97795 -2.342806,1.41845 -3.544488,1.07754 z m 12,0 c -0.627717,-0.17808 -1.237443,-0.56119 -1.711294,-1.07526 -1.596575,-1.73208 -1.018688,-4.61026 1.123212,-5.59418 0.785248,-0.36073 1.959401,-0.41061 2.739856,-0.11641 0.869972,0.32794 1.485318,0.88664 1.925169,1.74795 0.346405,0.67832 0.374134,0.79195 0.373801,1.53183 -4.8e-4,1.03734 -0.252811,1.71356 -0.906256,2.42853 -0.893788,0.97795 -2.342806,1.41845 -3.544488,1.07754 z m 12,0 c -0.627717,-0.17808 -1.237443,-0.56119 -1.711294,-1.07526 -1.596687,-1.73219 -1.022731,-4.59342 1.123212,-5.59931 0.47838,-0.22423 0.667084,-0.25633 1.506864,-0.25633 0.838151,0 1.027017,0.032 1.488,0.25203 0.808524,0.38594 1.29197,0.86391 1.69152,1.67234 0.32057,0.64864 0.352846,0.78661 0.352481,1.50682 -4.8e-4,1.03047 -0.254338,1.70883 -0.906295,2.42217 -0.893788,0.97795 -2.342806,1.41845 -3.544488,1.07754 z m 12,0 c -0.627717,-0.17808 -1.237443,-0.56119 -1.711294,-1.07526 -1.596687,-1.73219 -1.022731,-4.59342 1.123212,-5.59931 0.47838,-0.22423 0.667084,-0.25633 1.506864,-0.25633 0.83978,0 1.028484,0.0321 1.506864,0.25633 0.723971,0.33936 1.36758,0.99966 1.730671,1.77557 0.253725,0.5422 0.294952,0.73973 0.294542,1.41127 -5.76e-4,1.01753 -0.257249,1.69995 -0.906371,2.41019 -0.893788,0.97795 -2.342806,1.41845 -3.544488,1.07754 z m 12,0 c -0.627717,-0.17808 -1.237443,-0.56119 -1.711294,-1.07526 -1.596687,-1.73219 -1.022731,-4.59342 1.123212,-5.59931 0.47838,-0.22423 0.667084,-0.25633 1.506864,-0.25633 0.838147,0 1.027018,0.032 1.488,0.25203 0.808522,0.38594 1.291968,0.86391 1.69152,1.67234 0.320567,0.64864 0.352847,0.78661 0.352477,1.50682 -9.6e-4,1.03047 -0.254336,1.70883 -0.906291,2.42217 -0.893789,0.97795 -2.342804,1.41845 -3.544488,1.07754 z m 11.999989,0 c -0.62771,-0.17808 -1.23744,-0.56119 -1.71128,-1.07526 -1.59658,-1.73208 -1.0187,-4.61026 1.12321,-5.59418 0.78525,-0.36073 1.95939,-0.41061 2.73986,-0.11641 2.4554,0.92559 3.1112,4.11999 1.21077,5.89762 -0.65873,0.61615 -1.36019,0.92224 -2.22873,0.9725 -0.40655,0.0235 -0.87716,-0.0115 -1.13383,-0.0843 z m 12,0 c -0.62771,-0.17808 -1.23744,-0.56119 -1.71128,-1.07526 -1.59583,-1.73126 -1.01803,-4.61305 1.12131,-5.59246 0.65695,-0.30077 1.80573,-0.40082 2.46918,-0.21507 l 0.43158,0.12084 v 3.3019 3.3019 l -0.264,0.10168 c -0.42132,0.16229 -1.56279,0.19378 -2.04679,0.0565 z M 1.6289669e-6,152.66938 V 149.5032 L 0.24854163,149.4408 c 0.79725997,-0.2001 2.25982997,0.33019 2.86696997,1.0395 0.60839,0.71076 0.77249,1.1652 0.77249,2.13923 0,0.73166 -0.0385,0.94614 -0.2515,1.4003 -0.32556,0.69421 -0.83177,1.19262 -1.5623,1.53823 -0.48922,0.23143 -0.70928,0.27733 -1.33019997,0.27739 l -0.7440000010331,8e-5 z M 11.808002,155.74578 c -0.85303,-0.26042 -1.58403,-0.89398 -1.9935004,-1.72774 -0.22765,-0.46354 -0.26225,-0.64919 -0.26059,-1.39849 0.002,-0.7038 0.0426,-0.94653 0.22143,-1.30907 0.3536604,-0.71701 0.8315604,-1.19873 1.5306704,-1.5429 0.56462,-0.27796 0.73496,-0.31603 1.41399,-0.31603 0.67903,0 0.84937,0.0381 1.41399,0.31603 0.69702,0.34314 1.14252,0.79094 1.51788,1.52573 0.19911,0.38976 0.23613,0.59769 0.23613,1.32624 0,0.73166 -0.0385,0.94614 -0.2515,1.4003 -0.32556,0.69421 -0.83177,1.19262 -1.56231,1.53823 -0.49253,0.23301 -0.70123,0.27601 -1.30619,0.26914 -0.396,-0.005 -0.828,-0.0412 -0.96,-0.0814 z m 12,0 c -0.85303,-0.26042 -1.58403,-0.89398 -1.9935,-1.72774 -0.22765,-0.46354 -0.26225,-0.64919 -0.26059,-1.39849 0.002,-0.7038 0.0426,-0.94653 0.22143,-1.30907 0.35366,-0.71701 0.83156,-1.19873 1.53067,-1.5429 0.56462,-0.27796 0.73496,-0.31603 1.41399,-0.31603 0.67903,0 0.84937,0.0381 1.41399,0.31603 0.69817,0.34371 1.18577,0.83484 1.53755,1.54871 0.17604,0.35723 0.21646,0.60059 0.21646,1.30326 0,0.73166 -0.0385,0.94614 -0.2515,1.4003 -0.32556,0.69421 -0.83177,1.19262 -1.56231,1.53823 -0.49253,0.23301 -0.70123,0.27601 -1.30619,0.26914 -0.396,-0.005 -0.828,-0.0412 -0.96,-0.0814 z m 12,0 c -0.85303,-0.26042 -1.58403,-0.89398 -1.9935,-1.72774 -0.22765,-0.46354 -0.26225,-0.64919 -0.26059,-1.39849 0.002,-0.7038 0.0426,-0.94653 0.22143,-1.30907 0.35366,-0.71701 0.83156,-1.19873 1.53067,-1.5429 0.56462,-0.27796 0.73496,-0.31603 1.41399,-0.31603 0.67903,0 0.84937,0.0381 1.41399,0.31603 0.69817,0.34371 1.18577,0.83484 1.53755,1.54871 0.17604,0.35723 0.21646,0.60059 0.21646,1.30326 0,0.73166 -0.0385,0.94614 -0.2515,1.4003 -0.32556,0.69421 -0.83177,1.19262 -1.56231,1.53823 -0.49253,0.23301 -0.70123,0.27601 -1.30619,0.26914 -0.396,-0.005 -0.828,-0.0412 -0.96,-0.0814 z m 12.000001,0 c -0.853031,-0.26042 -1.584031,-0.89398 -1.993501,-1.72774 -0.22765,-0.46354 -0.26225,-0.64919 -0.26059,-1.39849 0.002,-0.7038 0.0426,-0.94653 0.22143,-1.30907 0.35366,-0.71701 0.83156,-1.19873 1.530672,-1.5429 0.564619,-0.27796 0.734955,-0.31603 1.413989,-0.31603 0.679034,0 0.84937,0.0381 1.413989,0.31603 0.698171,0.34371 1.185773,0.83484 1.537553,1.54871 0.176039,0.35723 0.216458,0.60059 0.216458,1.30326 0,0.73166 -0.03852,0.94614 -0.251503,1.4003 -0.325556,0.69421 -0.831763,1.19262 -1.562303,1.53823 -0.492535,0.23301 -0.701231,0.27601 -1.306194,0.26914 -0.396,-0.005 -0.828,-0.0412 -0.96,-0.0814 z m 12,0 c -0.853031,-0.26042 -1.584031,-0.89398 -1.993502,-1.72774 -0.227652,-0.46354 -0.262245,-0.64919 -0.260591,-1.39849 0.0016,-0.7038 0.04261,-0.94653 0.221433,-1.30907 0.353664,-0.71701 0.831556,-1.19873 1.530671,-1.5429 0.564619,-0.27796 0.734955,-0.31603 1.413989,-0.31603 0.679034,0 0.84937,0.0381 1.413989,0.31603 0.698171,0.34371 1.185773,0.83484 1.537553,1.54871 0.176039,0.35723 0.216458,0.60059 0.216458,1.30326 0,0.73166 -0.03852,0.94614 -0.251503,1.4003 -0.325556,0.69421 -0.831763,1.19262 -1.562303,1.53823 -0.492535,0.23301 -0.701231,0.27601 -1.306194,0.26914 -0.396,-0.005 -0.828,-0.0412 -0.96,-0.0814 z m 12,0 c -0.853031,-0.26042 -1.584031,-0.89398 -1.993502,-1.72774 -0.227652,-0.46354 -0.262245,-0.64919 -0.260591,-1.39849 0.0016,-0.7038 0.04261,-0.94653 0.221433,-1.30907 0.353664,-0.71701 0.831556,-1.19873 1.530671,-1.5429 0.564619,-0.27796 0.734955,-0.31603 1.413989,-0.31603 0.679034,0 0.84937,0.0381 1.413989,0.31603 0.698171,0.34371 1.185773,0.83484 1.537553,1.54871 0.176039,0.35723 0.216458,0.60059 0.216458,1.30326 0,0.73166 -0.03852,0.94614 -0.251503,1.4003 -0.325556,0.69421 -0.831763,1.19262 -1.562303,1.53823 -0.492535,0.23301 -0.701231,0.27601 -1.306194,0.26914 -0.396,-0.005 -0.828,-0.0412 -0.96,-0.0814 z m 12,0 c -0.853031,-0.26042 -1.584031,-0.89398 -1.993502,-1.72774 -0.227652,-0.46354 -0.262245,-0.64919 -0.260591,-1.39849 0.0016,-0.7038 0.04261,-0.94653 0.221433,-1.30907 0.353664,-0.71701 0.831556,-1.19873 1.530671,-1.5429 0.564619,-0.27796 0.734955,-0.31603 1.413989,-0.31603 0.679034,0 0.84937,0.0381 1.413989,0.31603 0.698171,0.34371 1.185773,0.83484 1.537553,1.54871 0.176039,0.35723 0.216458,0.60059 0.216458,1.30326 0,0.73166 -0.03852,0.94614 -0.251503,1.4003 -0.325556,0.69421 -0.831763,1.19262 -1.562303,1.53823 -0.492535,0.23301 -0.701231,0.27601 -1.306194,0.26914 -0.396,-0.005 -0.828,-0.0412 -0.96,-0.0814 z m 12,0 c -0.853031,-0.26042 -1.584031,-0.89398 -1.993502,-1.72774 -0.226961,-0.46213 -0.262498,-0.65146 -0.262498,-1.39849 0,-0.80097 0.02387,-0.90803 0.327178,-1.46738 0.615466,-1.13505 1.560609,-1.70042 2.842838,-1.70055 0.676838,-7e-5 0.847709,0.0382 1.411978,0.31596 0.698169,0.34371 1.185772,0.83484 1.537545,1.54871 0.176045,0.35723 0.216461,0.60059 0.216461,1.30326 0,0.73166 -0.03853,0.94614 -0.251501,1.4003 -0.325555,0.69421 -0.831763,1.19262 -1.562304,1.53823 -0.492537,0.23301 -0.701232,0.27601 -1.306195,0.26914 -0.396,-0.005 -0.828,-0.0412 -0.96,-0.0814 z m 11.999997,0 c -0.85303,-0.26042 -1.58403,-0.89398 -1.99351,-1.72774 -0.22764,-0.46354 -0.26224,-0.64919 -0.26058,-1.39849 0.002,-0.7038 0.0426,-0.94653 0.22143,-1.30907 0.35367,-0.71701 0.83156,-1.19873 1.53067,-1.5429 0.56462,-0.27796 0.73495,-0.31603 1.41399,-0.31603 0.67904,0 0.84937,0.0381 1.41399,0.31603 0.69702,0.34314 1.14252,0.79094 1.51788,1.52573 0.19911,0.38976 0.23613,0.59769 0.23613,1.32624 0,0.73166 -0.0385,0.94614 -0.2515,1.4003 -0.32556,0.69421 -0.83176,1.19262 -1.5623,1.53823 -0.49254,0.23301 -0.70124,0.27601 -1.3062,0.26914 -0.396,-0.005 -0.828,-0.0412 -0.96,-0.0814 z m 12,0 c -0.85303,-0.26042 -1.58403,-0.89398 -1.99351,-1.72774 -0.22764,-0.46354 -0.26224,-0.64919 -0.26058,-1.39849 0.002,-0.7038 0.0426,-0.94653 0.22143,-1.30907 0.71525,-1.4501 2.31965,-2.19994 3.79156,-1.77204 l 0.5451,0.15847 v 2.93022 2.93022 l -0.33292,0.13909 c -0.35231,0.14721 -1.55213,0.17724 -1.97108,0.0493 z M 0.12000163,143.48396 C 0.02780163,143.44676 1.6289669e-6,142.78092 1.6289669e-6,140.61155 v -2.82401 H 0.65490163 c 0.83833997,0 1.43209997,0.20529 1.97438997,0.68263 0.81587,0.71816 1.1534,1.81097 0.88406,2.86228 -0.34573,1.34955 -1.47824,2.22921 -2.84134997,2.20698 -0.2376,-0.004 -0.486,-0.0288 -0.552,-0.0555 z m 11.73592037,-0.0696 c -1.22377,-0.38359 -2.0030504,-1.47242 -2.0002104,-2.79477 0.002,-1.11779 0.5688504,-2.05576 1.5366304,-2.54445 0.6094,-0.30772 1.6424,-0.37382 2.32077,-0.1485 0.94558,0.31406 1.74167,1.3112 1.89041,2.36777 0.0818,0.58123 -0.15708,1.50894 -0.52702,2.04664 -0.66679,0.96914 -2.06562,1.43532 -3.22058,1.07331 z m 12,0 c -1.22377,-0.38359 -2.00305,-1.47242 -2.00021,-2.79477 0.002,-1.11779 0.56885,-2.05576 1.53663,-2.54445 0.6094,-0.30772 1.6424,-0.37382 2.32077,-0.1485 0.94558,0.31406 1.74167,1.3112 1.89041,2.36777 0.0818,0.58123 -0.15708,1.50894 -0.52702,2.04664 -0.66679,0.96914 -2.06562,1.43532 -3.22058,1.07331 z m 12,0 c -1.22377,-0.38359 -2.00305,-1.47242 -2.00021,-2.79477 0.002,-1.11779 0.56885,-2.05576 1.53663,-2.54445 0.6094,-0.30772 1.6424,-0.37382 2.32077,-0.1485 0.94558,0.31406 1.74167,1.3112 1.89041,2.36777 0.0818,0.58123 -0.15708,1.50894 -0.52702,2.04664 -0.66679,0.96914 -2.06562,1.43532 -3.22058,1.07331 z m 11.999998,0 c -1.223768,-0.38359 -2.003048,-1.47242 -2.000208,-2.79477 0.002,-1.11779 0.56885,-2.05576 1.536633,-2.54445 0.609397,-0.30772 1.642395,-0.37382 2.320769,-0.1485 0.945574,0.31406 1.741673,1.3112 1.890404,2.36777 0.08182,0.58123 -0.157073,1.50894 -0.527015,2.04664 -0.666789,0.96914 -2.065617,1.43532 -3.220583,1.07331 z m 12,0 c -1.223772,-0.38359 -2.003047,-1.47242 -2.000211,-2.79477 0.0024,-1.11672 0.566347,-2.05153 1.536636,-2.54716 0.391338,-0.1999 0.598423,-0.23685 1.327658,-0.23685 0.729235,0 0.93632,0.0369 1.327658,0.23685 1.198458,0.61218 1.800548,1.95301 1.465047,3.2626 -0.419044,1.63568 -2.072537,2.5759 -3.656788,2.07933 z m 12,0 c -1.223772,-0.38359 -2.003047,-1.47242 -2.000211,-2.79477 0.0024,-1.11779 0.568852,-2.05576 1.536636,-2.54445 0.609397,-0.30772 1.642395,-0.37382 2.320769,-0.1485 0.945574,0.31406 1.741673,1.3112 1.890404,2.36777 0.08182,0.58123 -0.157073,1.50894 -0.527015,2.04664 -0.666789,0.96914 -2.065617,1.43532 -3.220583,1.07331 z m 12.066868,0.0245 c -1.240962,-0.35771 -2.069933,-1.48833 -2.067079,-2.81924 0.0024,-1.11779 0.568852,-2.05576 1.536636,-2.54445 0.609397,-0.30772 1.642395,-0.37382 2.320769,-0.1485 0.945574,0.31406 1.741673,1.3112 1.890404,2.36777 0.08182,0.58123 -0.157073,1.50894 -0.527015,2.04664 -0.647822,0.94158 -2.028424,1.42215 -3.153715,1.09778 z m 11.933132,-0.0245 c -1.223772,-0.38359 -2.003047,-1.47242 -2.000211,-2.79477 0.0024,-1.11779 0.568852,-2.05576 1.536636,-2.54445 0.609396,-0.30772 1.642394,-0.37382 2.320768,-0.1485 0.945572,0.31406 1.741671,1.3112 1.890404,2.36777 0.08182,0.58123 -0.157076,1.50894 -0.527012,2.04664 -0.666787,0.96914 -2.065622,1.43532 -3.220585,1.07331 z m 11.99999,0 c -1.22377,-0.38359 -2.00304,-1.47242 -2.0002,-2.79477 0.002,-1.11779 0.56884,-2.05576 1.53663,-2.54445 0.6094,-0.30772 1.6424,-0.37382 2.32077,-0.1485 0.94557,0.31406 1.74167,1.3112 1.8904,2.36777 0.0818,0.58123 -0.15707,1.50894 -0.52701,2.04664 -0.66678,0.96914 -2.06562,1.43532 -3.22059,1.07331 z m 12,0 c -1.22377,-0.38359 -2.00304,-1.47242 -2.0002,-2.79477 0.002,-1.11672 0.56635,-2.05153 1.53663,-2.54716 0.39279,-0.20064 0.59571,-0.23651 1.32766,-0.23463 0.4752,0.001 0.9828,0.0542 1.128,0.11763 l 0.264,0.1154 v 2.59066 2.59066 l -0.49742,0.14772 c -0.58998,0.1752 -1.22911,0.18047 -1.75867,0.0145 z M 0.16642163,131.19306 c -0.15749,-0.041 -0.16776,-0.22327 -0.144,-2.55686 l 0.0256,-2.51266 0.72,0.002 c 0.82737997,0.002 1.27694997,0.17752 1.80294997,0.70352 0.73043,0.73043 0.94599,1.983 0.50262,2.92061 -0.49655,1.05009 -1.84604,1.72018 -2.90714997,1.44356 z m 11.72886037,-0.0827 c -1.74914,-0.53882 -2.3330004,-2.97474 -1.02622,-4.28152 0.54065,-0.54066 0.97282,-0.70535 1.85094,-0.70535 0.87812,0 1.31029,0.16469 1.85095,0.70535 0.4854,0.4854 0.72149,1.08738 0.72023,1.83642 -10e-4,0.79523 -0.27538,1.40239 -0.86869,1.92463 -0.70124,0.61726 -1.60728,0.80385 -2.52721,0.52047 z m 12,0 c -1.74914,-0.53882 -2.333,-2.97474 -1.02622,-4.28152 0.54065,-0.54066 0.97282,-0.70535 1.85094,-0.70535 0.87812,0 1.31029,0.16469 1.85095,0.70535 0.4854,0.4854 0.72149,1.08738 0.72023,1.83642 -10e-4,0.79523 -0.27538,1.40239 -0.86869,1.92463 -0.70124,0.61726 -1.60728,0.80385 -2.52721,0.52047 z m 12,0 c -1.74914,-0.53882 -2.333,-2.97474 -1.02622,-4.28152 0.54065,-0.54066 0.97282,-0.70535 1.85094,-0.70535 0.87812,0 1.31029,0.16469 1.85095,0.70535 0.4854,0.4854 0.72149,1.08738 0.72023,1.83642 -10e-4,0.79523 -0.27538,1.40239 -0.86869,1.92463 -0.70124,0.61726 -1.60728,0.80385 -2.52721,0.52047 z m 11.999997,0 c -1.749137,-0.53882 -2.332997,-2.97474 -1.026221,-4.28152 0.540658,-0.54066 0.972824,-0.70535 1.850945,-0.70535 0.878121,0 1.310287,0.16469 1.850945,0.70535 0.485404,0.4854 0.721497,1.08738 0.720235,1.83642 -0.0013,0.79523 -0.275381,1.40239 -0.868693,1.92463 -0.701233,0.61726 -1.607281,0.80385 -2.527211,0.52047 z m 12,0 c -1.749141,-0.53882 -2.332997,-2.97474 -1.026221,-4.28152 0.540658,-0.54066 0.972824,-0.70535 1.850945,-0.70535 0.878121,0 1.310287,0.16469 1.850945,0.70535 0.485404,0.4854 0.721497,1.08738 0.720235,1.83642 -0.0013,0.79523 -0.275381,1.40239 -0.868693,1.92463 -0.701233,0.61726 -1.607281,0.80385 -2.527211,0.52047 z m 12,0 c -1.749141,-0.53882 -2.332997,-2.97474 -1.026221,-4.28152 0.540658,-0.54066 0.972824,-0.70535 1.850945,-0.70535 0.878121,0 1.310287,0.16469 1.850945,0.70535 0.485404,0.4854 0.721497,1.08738 0.720235,1.83642 -0.0013,0.79523 -0.275381,1.40239 -0.868693,1.92463 -0.701233,0.61726 -1.607281,0.80385 -2.527211,0.52047 z m 12,0 c -1.749141,-0.53882 -2.332997,-2.97474 -1.026221,-4.28152 0.540658,-0.54066 0.972824,-0.70535 1.850945,-0.70535 0.878121,0 1.310287,0.16469 1.850945,0.70535 0.485404,0.4854 0.721497,1.08738 0.720235,1.83642 -0.0013,0.79523 -0.275381,1.40239 -0.868693,1.92463 -0.701233,0.61726 -1.607281,0.80385 -2.527211,0.52047 z m 12,0 c -1.749141,-0.53882 -2.332997,-2.97474 -1.026221,-4.28152 0.540658,-0.54066 0.972824,-0.70535 1.850945,-0.70535 0.878122,0 1.310285,0.16469 1.850947,0.70535 0.485405,0.4854 0.721498,1.08738 0.720231,1.83642 -0.0013,0.79523 -0.275376,1.40239 -0.868695,1.92463 -0.701232,0.61726 -1.60728,0.80385 -2.527207,0.52047 z m 11.999991,0 c -1.74914,-0.53882 -2.33299,-2.97474 -1.02622,-4.28152 0.54067,-0.54066 0.97283,-0.70535 1.85095,-0.70535 0.87812,0 1.31028,0.16469 1.85095,0.70535 0.4854,0.4854 0.72149,1.08738 0.72023,1.83642 -10e-4,0.79523 -0.27538,1.40239 -0.8687,1.92463 -0.70123,0.61726 -1.60728,0.80385 -2.52721,0.52047 z m 12,0.006 c -0.61232,-0.19662 -1.26143,-0.79593 -1.52456,-1.40761 -0.55811,-1.29734 -0.0298,-2.78563 1.20656,-3.39908 0.47597,-0.23616 1.76385,-0.25999 2.19873,-0.0407 l 0.288,0.14524 0.0258,2.23492 0.0258,2.23493 -0.36167,0.15111 c -0.51023,0.21319 -1.3353,0.24923 -1.85862,0.0812 z M 0.12000163,118.90796 C 0.02880163,118.87116 1.6289668e-6,118.32012 1.6289668e-6,116.61155 v -2.24801 L 0.69600163,114.3645 c 0.59730997,9.6e-4 0.76744997,0.0419 1.19987997,0.28988 2.06423,1.18382 1.15613,4.3527 -1.23501997,4.30965 -0.23147,-0.004 -0.47486,-0.0294 -0.54086,-0.0561 z m 11.79716037,-0.0678 c -0.17756,-0.0643 -0.4914,-0.25835 -0.69742,-0.43132 -1.2292104,-1.03198 -1.05284,-2.96447 0.34364,-3.76547 0.40796,-0.234 0.59092,-0.27797 1.15662,-0.27797 0.57157,0 0.7473,0.0432 1.17588,0.28897 1.3936,0.79923 1.55364,2.70426 0.31616,3.7635 -0.61738,0.52845 -1.53494,0.69729 -2.29488,0.42229 z m 12,0 c -0.17756,-0.0643 -0.4914,-0.25835 -0.69742,-0.43132 -1.22921,-1.03198 -1.05284,-2.96447 0.34364,-3.76547 0.40796,-0.234 0.59092,-0.27797 1.15662,-0.27797 0.57157,0 0.7473,0.0432 1.17588,0.28897 1.3936,0.79923 1.55364,2.70426 0.31616,3.7635 -0.61738,0.52845 -1.53494,0.69729 -2.29488,0.42229 z m 12,0 c -0.17756,-0.0643 -0.4914,-0.25835 -0.69742,-0.43132 -1.22921,-1.03198 -1.05284,-2.96447 0.34364,-3.76547 0.40796,-0.234 0.59092,-0.27797 1.15662,-0.27797 0.57157,0 0.7473,0.0432 1.17588,0.28897 1.3936,0.79923 1.55364,2.70426 0.31616,3.7635 -0.61738,0.52845 -1.53494,0.69729 -2.29488,0.42229 z m 12.000001,0 c -0.177563,-0.0643 -0.491404,-0.25835 -0.697425,-0.43132 -1.229206,-1.03198 -1.052836,-2.96447 0.343646,-3.76547 0.407961,-0.234 0.590918,-0.27797 1.156619,-0.27797 0.571618,0 0.747292,0.0432 1.176034,0.28905 1.389642,0.79696 1.550035,2.70713 0.316005,3.76342 -0.617382,0.52845 -1.534942,0.69729 -2.294879,0.42229 z m 12,0 c -0.177563,-0.0643 -0.491404,-0.25835 -0.697425,-0.43132 -1.229202,-1.03198 -1.052838,-2.96447 0.343646,-3.76547 0.407961,-0.234 0.590918,-0.27797 1.156619,-0.27797 0.571572,0 0.747302,0.0432 1.175876,0.28897 1.393608,0.79923 1.553645,2.70426 0.316163,3.7635 -0.617382,0.52845 -1.534942,0.69729 -2.294879,0.42229 z m 12,0 c -0.177563,-0.0643 -0.491404,-0.25835 -0.697425,-0.43132 -1.229202,-1.03198 -1.052838,-2.96447 0.343646,-3.76547 0.407961,-0.234 0.590918,-0.27797 1.156619,-0.27797 0.571572,0 0.747302,0.0432 1.175876,0.28897 1.393608,0.79923 1.553645,2.70426 0.316163,3.7635 -0.617382,0.52845 -1.534942,0.69729 -2.294879,0.42229 z m 12,0 c -0.450616,-0.16307 -1.038082,-0.6793 -1.253441,-1.10144 -0.577818,-1.13261 -0.163105,-2.5188 0.931864,-3.11475 0.38924,-0.21185 0.60122,-0.26021 1.137409,-0.25947 0.556158,9.6e-4 0.737646,0.046 1.162884,0.28987 1.393608,0.79923 1.553645,2.70426 0.316163,3.7635 -0.617382,0.52845 -1.534942,0.69729 -2.294879,0.42229 z m 12,0 c -0.177563,-0.0643 -0.491404,-0.25835 -0.697425,-0.43132 -1.229202,-1.03198 -1.052838,-2.96447 0.343646,-3.76547 0.407961,-0.234 0.59092,-0.27797 1.156619,-0.27797 0.571574,0 0.747302,0.0432 1.175875,0.28897 1.393613,0.79923 1.553645,2.70426 0.316167,3.7635 -0.617386,0.52845 -1.534944,0.69729 -2.294882,0.42229 z m 11.999997,0 c -0.17756,-0.0643 -0.4914,-0.25835 -0.69743,-0.43132 -1.22919,-1.03198 -1.05283,-2.96447 0.34365,-3.76547 0.40796,-0.234 0.59092,-0.27797 1.15662,-0.27797 0.57157,0 0.7473,0.0432 1.17588,0.28897 1.39361,0.79923 1.55364,2.70426 0.31616,3.7635 -0.61738,0.52845 -1.53494,0.69729 -2.29488,0.42229 z m 12,0.005 c -0.4554,-0.17195 -1.0399,-0.68792 -1.25344,-1.1065 -0.57634,-1.12972 -0.18602,-2.47261 0.89966,-3.09535 0.61932,-0.35523 1.56685,-0.39274 2.16844,-0.0858 l 0.38018,0.19395 v 1.90712 1.9071 l -0.36,0.17363 c -0.44399,0.21414 -1.40173,0.26941 -1.83484,0.10588 z M 0.16604163,106.61699 c -0.15664,-0.0408 -0.16793,-0.19608 -0.144,-1.98087 l 0.026,-1.93658 0.59611,-0.0285 c 0.97989997,-0.0468 1.74219997,0.48563 2.00893997,1.40317 0.4461,1.53454 -0.93541,2.947 -2.48700997,2.54276 z m 11.88196037,-0.0507 c -0.68061,-0.24132 -1.20563,-0.88091 -1.33635,-1.62798 -0.1374,-0.7852 0.35066,-1.71434 1.10181,-2.09754 0.46022,-0.23479 1.32,-0.25171 1.75131,-0.0345 0.54625,0.27513 0.92946,0.7216 1.08828,1.26793 0.46342,1.59409 -1.05117,3.04297 -2.60505,2.49205 z m 12,0 c -0.68061,-0.24132 -1.20563,-0.88091 -1.33635,-1.62798 -0.1374,-0.7852 0.35066,-1.71434 1.10181,-2.09754 0.46022,-0.23479 1.32,-0.25171 1.75131,-0.0345 0.54625,0.27513 0.92946,0.7216 1.08828,1.26793 0.46342,1.59409 -1.05117,3.04297 -2.60505,2.49205 z m 12,0 c -0.46576,-0.16514 -0.79978,-0.44421 -1.0449,-0.87301 -0.3008,-0.5262 -0.37813,-1.00946 -0.2457,-1.53539 0.49222,-1.95478 3.33396,-2.0158 3.89565,-0.0836 0.46342,1.59409 -1.05117,3.04297 -2.60505,2.49205 z m 12.000001,0 c -0.68061,-0.24132 -1.205629,-0.88091 -1.336351,-1.62798 -0.1374,-0.7852 0.350662,-1.71434 1.101812,-2.09754 0.460222,-0.23479 1.319999,-0.25171 1.751306,-0.0345 0.546254,0.27513 0.929462,0.7216 1.088287,1.26793 0.463412,1.59409 -1.051173,3.04297 -2.605054,2.49205 z m 12,0 c -0.68061,-0.24132 -1.205629,-0.88091 -1.336355,-1.62798 -0.137396,-0.7852 0.350666,-1.71434 1.101816,-2.09754 0.460222,-0.23479 1.319999,-0.25171 1.751306,-0.0345 0.546254,0.27513 0.929462,0.7216 1.088287,1.26793 0.463412,1.59409 -1.051173,3.04297 -2.605054,2.49205 z m 12,0 c -0.68061,-0.24132 -1.205629,-0.88091 -1.336355,-1.62798 -0.137396,-0.7852 0.350666,-1.71434 1.101816,-2.09754 0.460222,-0.23479 1.319999,-0.25171 1.751306,-0.0345 0.546254,0.27513 0.929462,0.7216 1.088287,1.26793 0.463412,1.59409 -1.051173,3.04297 -2.605054,2.49205 z m 12,0 c -0.68061,-0.24132 -1.205629,-0.88091 -1.336355,-1.62798 -0.137396,-0.7852 0.350666,-1.71434 1.101816,-2.09754 0.460222,-0.23479 1.319999,-0.25171 1.751306,-0.0345 0.546254,0.27513 0.929462,0.7216 1.088287,1.26793 0.463412,1.59409 -1.051173,3.04297 -2.605054,2.49205 z m 12,0 c -0.68061,-0.24132 -1.205629,-0.88091 -1.336355,-1.62798 -0.137396,-0.7852 0.350666,-1.71434 1.101816,-2.09754 0.460225,-0.23479 1.320001,-0.25171 1.75131,-0.0345 0.54625,0.27513 0.929453,0.7216 1.088285,1.26793 0.463411,1.59409 -1.051171,3.04297 -2.605056,2.49205 z m 11.999997,0 c -0.68061,-0.24132 -1.20563,-0.88091 -1.33636,-1.62798 -0.13739,-0.7852 0.35067,-1.71434 1.10182,-2.09754 0.46023,-0.23479 1.32,-0.25171 1.75131,-0.0345 0.54625,0.27513 0.92945,0.7216 1.08829,1.26793 0.46341,1.59409 -1.05118,3.04297 -2.60506,2.49205 z m 12,0.005 c -0.6889,-0.25659 -1.20609,-0.88865 -1.33636,-1.63314 -0.13739,-0.7852 0.35067,-1.71434 1.10182,-2.09754 0.52472,-0.2677 1.36332,-0.25358 1.86654,0.0314 l 0.384,0.21747 v 1.57154 1.57153 l -0.37534,0.19478 c -0.43855,0.22759 -1.22974,0.297 -1.64066,0.14394 z M 0.06400163,94.331538 C 0.02880163,94.296338 1.6289669e-6,93.520699 1.6289669e-6,92.607892 v -1.65965 L 0.34137163,90.884202 c 1.12014997,-0.210142 2.15462997,0.618194 2.15462997,1.725265 0,0.729179 -0.35237,1.323159 -0.97923,1.650645 -0.26198,0.136869 -1.33458997,0.189602 -1.45276997,0.07143 z M 11.856002,94.215954 c -0.63551,-0.394698 -0.912,-0.88174 -0.912,-1.606487 0,-0.577136 0.30018,-1.13173 0.78689,-1.453818 0.3267,-0.216206 0.5061,-0.264108 0.98911,-0.264108 0.48301,0 0.66241,0.0479 0.98911,0.264108 0.90746,0.600528 1.0656,1.913478 0.32478,2.696463 -0.14184,0.149914 -0.37454,0.333514 -0.51712,0.408 -0.3803,0.198674 -1.30956,0.173973 -1.66077,-0.04416 z m 12,0 c -0.63551,-0.394698 -0.912,-0.88174 -0.912,-1.606487 0,-0.577136 0.30018,-1.13173 0.78689,-1.453818 0.3267,-0.216206 0.5061,-0.264108 0.98911,-0.264108 0.48301,0 0.66241,0.0479 0.98911,0.264108 0.90746,0.600528 1.0656,1.913478 0.32478,2.696463 -0.14184,0.149914 -0.37454,0.333514 -0.51712,0.408 -0.3803,0.198674 -1.30956,0.173973 -1.66077,-0.04416 z m 12,0 c -0.63551,-0.394698 -0.912,-0.88174 -0.912,-1.606487 0,-0.577136 0.30018,-1.13173 0.78689,-1.453818 0.3267,-0.216206 0.5061,-0.264108 0.98911,-0.264108 0.48301,0 0.66241,0.0479 0.98911,0.264108 0.90746,0.600528 1.0656,1.913478 0.32478,2.696463 -0.14184,0.149914 -0.37454,0.333514 -0.51712,0.408 -0.3803,0.198674 -1.30956,0.173973 -1.66077,-0.04416 z m 12.000001,0 c -0.635508,-0.394698 -0.912,-0.88174 -0.912,-1.606487 0,-0.577136 0.300177,-1.13173 0.786886,-1.453818 0.326707,-0.216206 0.506106,-0.264108 0.989114,-0.264108 0.483008,0 0.662407,0.0479 0.989114,0.264108 0.90746,0.600528 1.0656,1.913478 0.324778,2.696463 -0.14184,0.149914 -0.374546,0.333514 -0.517125,0.408 -0.3803,0.198674 -1.309557,0.173973 -1.660767,-0.04416 z m 12,0 c -0.635508,-0.394698 -0.912,-0.88174 -0.912,-1.606487 0,-0.577136 0.300177,-1.13173 0.786886,-1.453818 0.326707,-0.216206 0.506106,-0.264108 0.989114,-0.264108 0.483008,0 0.662407,0.0479 0.989114,0.264108 0.90746,0.600528 1.0656,1.913478 0.324778,2.696463 -0.14184,0.149914 -0.374546,0.333514 -0.517125,0.408 -0.3803,0.198674 -1.309557,0.173973 -1.660767,-0.04416 z m 12,0 c -0.635508,-0.394698 -0.912,-0.88174 -0.912,-1.606487 0,-0.577136 0.300177,-1.13173 0.786886,-1.453818 0.326707,-0.216206 0.506106,-0.264108 0.989114,-0.264108 0.483008,0 0.662407,0.0479 0.989114,0.264108 0.90746,0.600528 1.0656,1.913478 0.324778,2.696463 -0.14184,0.149914 -0.374546,0.333514 -0.517125,0.408 -0.3803,0.198674 -1.309557,0.173973 -1.660767,-0.04416 z m 12,0 c -0.635508,-0.394698 -0.912,-0.88174 -0.912,-1.606487 0,-0.577136 0.300177,-1.13173 0.786886,-1.453818 0.326707,-0.216206 0.506106,-0.264108 0.989114,-0.264108 0.483008,0 0.662407,0.0479 0.989114,0.264108 0.90746,0.600528 1.0656,1.913478 0.324778,2.696463 -0.14184,0.149914 -0.374546,0.333514 -0.517125,0.408 -0.3803,0.198674 -1.309557,0.173973 -1.660767,-0.04416 z m 12,0 c -0.635508,-0.394698 -0.912,-0.88174 -0.912,-1.606487 0,-0.577136 0.300177,-1.13173 0.786886,-1.453818 0.326704,-0.216206 0.506109,-0.264108 0.989114,-0.264108 0.483005,0 0.66241,0.0479 0.989117,0.264108 0.907459,0.600528 1.0656,1.913478 0.324777,2.696463 -0.14184,0.149914 -0.374553,0.333514 -0.517123,0.408 -0.380304,0.198674 -1.309565,0.173973 -1.660771,-0.04416 z m 11.999997,0 c -0.63551,-0.394698 -0.912,-0.88174 -0.912,-1.606487 0,-0.577136 0.30017,-1.13173 0.78688,-1.453818 0.32671,-0.216206 0.50612,-0.264108 0.98912,-0.264108 0.483,0 0.66241,0.0479 0.98912,0.264108 0.90746,0.600528 1.0656,1.913478 0.32477,2.696463 -0.14184,0.149914 -0.37455,0.333514 -0.51712,0.408 -0.3803,0.198674 -1.30956,0.173973 -1.66077,-0.04416 z m 12,0 c -0.86901,-0.539721 -1.16585,-1.538472 -0.7181,-2.41613 0.45615,-0.894149 1.71732,-1.209262 2.57311,-0.64292 l 0.40099,0.265362 v 1.181903 c 0,1.103385 -0.0143,1.194974 -0.216,1.378641 -0.35822,0.326283 -0.60852,0.412751 -1.19369,0.412376 -0.37709,0 -0.65179,-0.05842 -0.84631,-0.179232 z M 0.28800163,82.121908 l -0.24,-0.0708 -0.0265,-1.399933 c -0.0262,-1.385581 -0.0243,-1.400535 0.192,-1.458474 0.6895,-0.184726 1.40266997,0.0602 1.77849997,0.610791 0.27309,0.400076 0.29711,1.224621 0.048,1.647868 -0.31144,0.529163 -1.14708997,0.848995 -1.75199997,0.670548 z M 12.229972,82.103948 c -0.16392,-0.04986 -0.4174,-0.209849 -0.56329,-0.355529 -0.72525,-0.724219 -0.55614,-1.967255 0.33182,-2.43912 0.67701,-0.35976 1.56002,-0.140857 1.9935,0.494197 0.29862,0.437488 0.30075,1.25648 0.004,1.688995 -0.379,0.553111 -1.11765,0.808798 -1.76642,0.611457 z m 12,0 c -0.16392,-0.04986 -0.4174,-0.209849 -0.56329,-0.355529 -0.72525,-0.724219 -0.55614,-1.967255 0.33182,-2.43912 0.67701,-0.35976 1.56002,-0.140857 1.9935,0.494197 0.27309,0.400076 0.29711,1.224621 0.048,1.647868 -0.32496,0.552125 -1.15567,0.851626 -1.81003,0.652584 z m 12.00763,0.002 c -0.15973,-0.04877 -0.4385,-0.241467 -0.6195,-0.42821 -0.28998,-0.29919 -0.33347,-0.410747 -0.366,-0.938852 -0.0313,-0.507745 -0.003,-0.649166 0.18749,-0.925563 0.6157,-0.895105 1.94463,-0.900208 2.55241,-0.0098 0.29862,0.437488 0.30075,1.25648 0.004,1.688995 -0.37731,0.550657 -1.11817,0.809053 -1.75879,0.613433 z m 11.992366,-0.002 c -0.16392,-0.04986 -0.417398,-0.209849 -0.563286,-0.355529 -0.725247,-0.724219 -0.556142,-1.967255 0.331823,-2.43912 0.677004,-0.35976 1.560017,-0.140857 1.993498,0.494197 0.273087,0.400076 0.297106,1.224621 0.048,1.647868 -0.324958,0.552125 -1.155667,0.851626 -1.810035,0.652584 z m 12,0 c -0.16392,-0.04986 -0.417398,-0.209849 -0.563286,-0.355529 -0.725247,-0.724219 -0.556142,-1.967255 0.331823,-2.43912 0.677004,-0.35976 1.560017,-0.140857 1.993498,0.494197 0.273087,0.400076 0.297106,1.224621 0.048,1.647868 -0.324958,0.552125 -1.155667,0.851626 -1.810035,0.652584 z m 12,0 c -0.16392,-0.04986 -0.417398,-0.209849 -0.563286,-0.355529 -0.725247,-0.724219 -0.556142,-1.967255 0.331823,-2.43912 0.677004,-0.35976 1.560017,-0.140857 1.993498,0.494197 0.273087,0.400076 0.297106,1.224621 0.048,1.647868 -0.324958,0.552125 -1.155667,0.851626 -1.810035,0.652584 z m 12,0 c -0.16392,-0.04986 -0.417398,-0.209849 -0.563286,-0.355529 -0.725247,-0.724219 -0.556142,-1.967255 0.331823,-2.43912 0.677004,-0.35976 1.560017,-0.140857 1.993498,0.494197 0.273087,0.400076 0.297106,1.224621 0.048,1.647868 -0.324958,0.552125 -1.155667,0.851626 -1.810035,0.652584 z m 12.000003,0 c -0.16392,-0.04986 -0.417401,-0.209849 -0.563289,-0.355529 -0.725247,-0.724219 -0.556142,-1.967255 0.331823,-2.43912 0.677002,-0.35976 1.56002,-0.140857 1.993498,0.494197 0.273091,0.400076 0.297101,1.224621 0.048,1.647868 -0.32496,0.552125 -1.155667,0.851626 -1.810032,0.652584 z m 11.999999,0 c -0.16392,-0.04986 -0.4174,-0.209849 -0.56329,-0.355529 -0.72525,-0.724219 -0.55614,-1.967255 0.33182,-2.43912 0.677,-0.35976 1.56002,-0.140857 1.9935,0.494197 0.29863,0.437488 0.30075,1.25648 0.004,1.688995 -0.379,0.553111 -1.11765,0.808798 -1.76642,0.611457 z m 12,-0.0042 c -1.21775,-0.3533 -1.36973,-2.185586 -0.23147,-2.790461 0.62237,-0.330725 1.50399,-0.158734 1.92411,0.37537 0.1517,0.192851 0.18939,0.389567 0.18939,0.988438 0,0.705001 -0.0167,0.764331 -0.29196,1.039637 -0.27234,0.272331 -0.81587,0.500344 -1.14804,0.481607 -0.0792,-0.0045 -0.27811,-0.04703 -0.44203,-0.09459 z M 0.16800163,69.811851 C 0.02353163,69.727711 1.6289669e-6,69.560562 1.6289669e-6,68.618624 V 67.523247 L 0.38084163,67.409145 c 0.3194,-0.09569 0.44979,-0.08777 0.80820997,0.04911 1.32483,0.505958 0.95067,2.463474 -0.46904997,2.454007 -0.2112,-0.0014 -0.4596,-0.04659 -0.552,-0.100411 z M 12.028662,69.727431 c -0.84991,-0.518223 -0.78929,-1.773961 0.10657,-2.207643 0.49565,-0.239935 0.66667,-0.242031 1.16805,-0.01431 0.91307,0.414697 0.94352,1.799217 0.0497,2.261409 -0.3923,0.202869 -0.95439,0.186125 -1.32435,-0.03945 z m 12,0 c -0.84991,-0.518223 -0.78929,-1.773961 0.10657,-2.207643 0.49565,-0.239935 0.66667,-0.242031 1.16805,-0.01431 0.91307,0.414697 0.94352,1.799217 0.0497,2.261409 -0.3923,0.202869 -0.95439,0.186125 -1.32435,-0.03945 z m 12,0 c -0.84699,-0.516439 -0.78114,-1.777906 0.11546,-2.211943 0.48648,-0.235501 0.6594,-0.236994 1.15916,-0.01001 0.91307,0.414697 0.94352,1.799217 0.0497,2.261409 -0.3923,0.202869 -0.95439,0.186125 -1.32435,-0.03945 z m 12.000002,0 c -0.849914,-0.518223 -0.789293,-1.773961 0.106573,-2.207643 0.495641,-0.239935 0.666668,-0.242031 1.168049,-0.01431 0.913064,0.414697 0.943512,1.799217 0.04973,2.261409 -0.392304,0.202869 -0.954392,0.186125 -1.324351,-0.03945 z m 11.961535,-0.03102 c -0.62503,-0.419877 -0.735124,-1.40976 -0.214676,-1.930209 0.396294,-0.396294 0.896726,-0.505315 1.413533,-0.307945 0.499107,0.190611 0.74082,0.511633 0.803421,1.067033 0.120762,1.071388 -1.093506,1.781607 -2.002278,1.171121 z m 12.038465,0.03102 c -0.849914,-0.518223 -0.789293,-1.773961 0.106573,-2.207643 0.495641,-0.239935 0.666668,-0.242031 1.168049,-0.01431 0.913064,0.414697 0.943512,1.799217 0.04973,2.261409 -0.392304,0.202869 -0.954392,0.186125 -1.324351,-0.03945 z m 12,0 c -0.849914,-0.518223 -0.789293,-1.773961 0.106573,-2.207643 0.495641,-0.239935 0.666668,-0.242031 1.168049,-0.01431 0.913064,0.414697 0.943512,1.799217 0.04973,2.261409 -0.392304,0.202869 -0.954392,0.186125 -1.324351,-0.03945 z m 11.999995,0 c -0.849909,-0.518223 -0.789288,-1.773961 0.106579,-2.207643 0.495639,-0.239935 0.666663,-0.242031 1.168051,-0.01431 0.913066,0.414697 0.943508,1.799217 0.04973,2.261409 -0.392304,0.202869 -0.954393,0.186125 -1.324358,-0.03945 z m 12.000001,0 c -0.84991,-0.518223 -0.7893,-1.773961 0.10658,-2.207643 0.49563,-0.239935 0.66666,-0.242031 1.16805,-0.01431 0.91306,0.414697 0.9435,1.799217 0.0497,2.261409 -0.3923,0.202869 -0.95439,0.186125 -1.32435,-0.03945 z m 12,0 c -0.84991,-0.518223 -0.7893,-1.773961 0.10658,-2.207643 0.49563,-0.239935 0.66666,-0.242031 1.16805,-0.01431 0.91306,0.414697 0.9435,1.799217 0.0497,2.261409 -0.3923,0.202869 -0.95439,0.186125 -1.32435,-0.03945 z M 0.21600163,57.606373 C 0.01622163,57.510023 1.6289668e-6,57.438665 1.6289668e-6,56.656248 c 0,-0.95869 0.061600001033,-1.044708 0.7487400010332,-1.044708 0.48081997,0 0.84416997,0.279255 0.98800997,0.759339 0.26253,0.876249 -0.67922,1.641347 -1.52074997,1.235494 z M 12.215172,57.596313 c -0.47049,-0.2613 -0.67463,-0.850351 -0.46694,-1.347423 0.18031,-0.431531 0.49684,-0.637355 0.98018,-0.637355 0.50232,0 0.86198,0.270848 1.00834,0.759339 0.26338,0.879086 -0.71966,1.670798 -1.52158,1.225439 z m 12,0 c -0.47049,-0.2613 -0.67463,-0.850351 -0.46694,-1.347423 0.18031,-0.431531 0.49684,-0.637355 0.98018,-0.637355 0.50232,0 0.86198,0.270848 1.00834,0.759339 0.26338,0.879086 -0.71966,1.670798 -1.52158,1.225439 z m 12.02483,-0.0058 c -0.47345,-0.206407 -0.70488,-0.831515 -0.49437,-1.335334 0.18282,-0.437563 0.49744,-0.643594 0.98278,-0.643594 0.50232,0 0.86198,0.270848 1.00834,0.759339 0.0914,0.305114 0.0818,0.423159 -0.0586,0.719079 -0.27141,0.571949 -0.82907,0.766031 -1.43811,0.50051 z m 11.975173,0.0058 c -0.470497,-0.261299 -0.674629,-0.850351 -0.466939,-1.347423 0.180306,-0.431527 0.49684,-0.637351 0.980181,-0.637351 0.502317,0 0.861978,0.270848 1.008334,0.759339 0.26338,0.879086 -0.719655,1.670798 -1.521576,1.225439 z m 12,0 c -0.470497,-0.261299 -0.674629,-0.850351 -0.466939,-1.347423 0.180306,-0.431527 0.49684,-0.637351 0.980181,-0.637351 0.502317,0 0.861978,0.270848 1.008334,0.759339 0.26338,0.879086 -0.719655,1.670798 -1.521576,1.225439 z m 12,0 c -0.470497,-0.261299 -0.674629,-0.850351 -0.466939,-1.347423 0.180306,-0.431527 0.49684,-0.637351 0.980181,-0.637351 0.502317,0 0.861978,0.270848 1.008334,0.759339 0.26338,0.879086 -0.719655,1.670798 -1.521576,1.225439 z m 12,0 c -0.470497,-0.261299 -0.674629,-0.850351 -0.466939,-1.347423 0.180306,-0.431527 0.49684,-0.637351 0.980181,-0.637351 0.502317,0 0.861978,0.270848 1.008334,0.759339 0.26338,0.879086 -0.719655,1.670798 -1.521576,1.225439 z m 12.000002,0 c -0.470499,-0.261299 -0.674631,-0.850351 -0.466941,-1.347423 0.180306,-0.431527 0.496836,-0.637351 0.980177,-0.637351 0.50232,0 0.861984,0.270848 1.008336,0.759339 0.263385,0.879086 -0.719655,1.670798 -1.521572,1.225439 z m 11.999993,0 c -0.47049,-0.261299 -0.67463,-0.850351 -0.46694,-1.347423 0.18031,-0.431531 0.49684,-0.637355 0.98018,-0.637355 0.50232,0 0.86198,0.270848 1.00834,0.759339 0.26338,0.879087 -0.71966,1.670799 -1.52158,1.225439 z m 12,0 c -0.47049,-0.261299 -0.67463,-0.850351 -0.46694,-1.347423 0.18031,-0.431531 0.49684,-0.637355 0.98018,-0.637355 0.50232,0 0.86198,0.270848 1.00834,0.759339 0.26338,0.879087 -0.71966,1.670799 -1.52158,1.225439 z M 0.26400163,45.380631 C 0.02193163,45.249303 1.6289668e-6,45.190277 1.6289668e-6,44.669918 c 0,-0.477602 0.033800001033,-0.591163 0.2133600010332,-0.716935 0.475,-0.332705 1.24505997,-0.05418 1.34866997,0.487808 0.0728,0.380741 -0.10619,0.789625 -0.41567,0.949665 -0.33944997,0.175539 -0.54489997,0.173251 -0.88235997,-0.0098 z m 12.07200037,0.04005 c -0.31979,-0.174914 -0.432,-0.385958 -0.432,-0.812527 0,-0.325004 0.0508,-0.446645 0.25295,-0.605652 0.49399,-0.388574 1.29477,-0.138791 1.40508,0.438284 0.13932,0.728783 -0.60195,1.321237 -1.22603,0.979895 z m 12,0 c -0.31979,-0.174914 -0.432,-0.385958 -0.432,-0.812527 0,-0.325004 0.0508,-0.446645 0.25295,-0.605652 0.49399,-0.388574 1.29477,-0.138791 1.40508,0.438284 0.13932,0.728783 -0.60195,1.321237 -1.22603,0.979895 z m 12,0 c -0.31979,-0.174914 -0.432,-0.385958 -0.432,-0.812527 0,-0.325004 0.0508,-0.446645 0.25295,-0.605652 0.49399,-0.388574 1.29477,-0.138791 1.40508,0.438284 0.13932,0.728783 -0.60195,1.321237 -1.22603,0.979895 z m 12.000001,0 c -0.319793,-0.174914 -0.432,-0.385958 -0.432,-0.812527 0,-0.325004 0.0508,-0.446645 0.252947,-0.605652 0.493992,-0.388574 1.294768,-0.138791 1.405082,0.438284 0.139316,0.728783 -0.601954,1.321237 -1.226029,0.979895 z m 12,0 c -0.319793,-0.174914 -0.432,-0.385958 -0.432,-0.812527 0,-0.325004 0.0508,-0.446645 0.252947,-0.605652 0.493992,-0.388574 1.294768,-0.138791 1.405082,0.438284 0.139316,0.728783 -0.601954,1.321237 -1.226029,0.979895 z m 12,0 c -0.319793,-0.174914 -0.432,-0.385958 -0.432,-0.812527 0,-0.325004 0.0508,-0.446645 0.252947,-0.605652 0.493992,-0.388574 1.294768,-0.138791 1.405082,0.438284 0.139316,0.728783 -0.601954,1.321237 -1.226029,0.979895 z m 12,0 c -0.319793,-0.174914 -0.432,-0.385958 -0.432,-0.812527 0,-0.325004 0.0508,-0.446645 0.252947,-0.605652 0.493992,-0.388574 1.294768,-0.138791 1.405082,0.438284 0.139316,0.728783 -0.601954,1.321237 -1.226029,0.979895 z m 12,0 c -0.319795,-0.174914 -0.432,-0.385958 -0.432,-0.812527 0,-0.325004 0.0508,-0.446645 0.25295,-0.605652 0.493988,-0.388574 1.294762,-0.138791 1.405076,0.438284 0.139315,0.728783 -0.601949,1.321237 -1.226026,0.979895 z m 11.999997,0 c -0.3198,-0.174914 -0.432,-0.385958 -0.432,-0.812527 0,-0.325004 0.0508,-0.446645 0.25295,-0.605652 0.49399,-0.388574 1.29476,-0.138791 1.40508,0.438284 0.13931,0.728783 -0.60195,1.321237 -1.22603,0.979895 z m 12,0 c -0.3198,-0.174914 -0.432,-0.385958 -0.432,-0.812527 0,-0.325004 0.0508,-0.446645 0.25295,-0.605652 0.49399,-0.388574 1.29476,-0.138791 1.40508,0.438284 0.13931,0.728783 -0.60195,1.321237 -1.22603,0.979895 z M 0.19897163,33.086593 c -0.22691,-0.288466 -0.24512,-0.440004 -0.0886,-0.737365 0.15,-0.284975 0.26787,-0.350496 0.63363,-0.352219 0.37010997,-0.0017 0.69599997,0.283681 0.69599997,0.609584 0,0.376514 -0.35014,0.732946 -0.71999997,0.732946 -0.23359,0 -0.37672,-0.06949 -0.52103,-0.252946 z m 12.00000037,0 c -0.22691,-0.288466 -0.24512,-0.440004 -0.0886,-0.737365 0.15,-0.284975 0.26787,-0.350496 0.63363,-0.352219 0.37011,-0.0017 0.696,0.283681 0.696,0.609584 0,0.376514 -0.35014,0.732946 -0.72,0.732946 -0.23359,0 -0.37673,-0.06949 -0.52103,-0.252946 z m 12.03667,0.01731 c -0.26068,-0.260672 -0.29055,-0.440663 -0.12527,-0.754675 0.15,-0.284975 0.26787,-0.350496 0.63363,-0.352219 0.61738,-0.0029 0.88864,0.591739 0.49703,1.089584 -0.2601,0.330661 -0.68473,0.337972 -1.00539,0.01731 z m 11.96333,-0.01731 c -0.22691,-0.288466 -0.24512,-0.440004 -0.0886,-0.737365 0.1497,-0.284409 0.26788,-0.350492 0.62989,-0.352219 0.35585,-0.0017 0.69974,0.306779 0.69974,0.627685 0,0.360262 -0.35714,0.714845 -0.72,0.714845 -0.23359,0 -0.37673,-0.06949 -0.52103,-0.252946 z m 11.999999,0 c -0.226907,-0.288466 -0.245115,-0.440004 -0.0886,-0.737365 0.148496,-0.282117 0.267916,-0.35048 0.615281,-0.352219 0.383354,-0.0019 0.602316,0.169995 0.672558,0.528045 0.135928,0.692884 -0.764338,1.11443 -1.199242,0.561539 z m 12,0 c -0.226907,-0.288466 -0.245115,-0.440004 -0.0886,-0.737365 0.148496,-0.282117 0.267916,-0.35048 0.615281,-0.352219 0.383354,-0.0019 0.602316,0.169995 0.672558,0.528045 0.135928,0.692884 -0.764338,1.11443 -1.199242,0.561539 z m 12,0 c -0.226907,-0.288466 -0.245115,-0.440004 -0.0886,-0.737365 0.149999,-0.284975 0.267869,-0.350496 0.633629,-0.352219 0.370113,-0.0017 0.696,0.283681 0.696,0.609584 0,0.376514 -0.350137,0.732946 -0.72,0.732946 -0.233589,0 -0.376724,-0.06949 -0.521032,-0.252946 z m 12,0 c -0.226907,-0.288466 -0.245115,-0.440004 -0.0886,-0.737365 0.148496,-0.282117 0.267916,-0.35048 0.615281,-0.352219 0.383354,-0.0019 0.602316,0.169995 0.672558,0.528045 0.135928,0.692884 -0.764338,1.11443 -1.199242,0.561539 z m 12.000002,0 c -0.226909,-0.288466 -0.245117,-0.440004 -0.0886,-0.737365 0.15,-0.284975 0.267869,-0.350496 0.633629,-0.352219 0.370109,-0.0017 0.696,0.283681 0.696,0.609584 0,0.376514 -0.350141,0.732946 -0.72,0.732946 -0.233587,0 -0.376723,-0.06949 -0.521029,-0.252946 z m 11.999997,0 c -0.22691,-0.288466 -0.24512,-0.440004 -0.0886,-0.737365 0.15,-0.284975 0.26787,-0.350496 0.63363,-0.352219 0.37011,-0.0017 0.696,0.283681 0.696,0.609584 0,0.376514 -0.35014,0.732946 -0.72,0.732946 -0.23359,0 -0.37672,-0.06949 -0.52103,-0.252946 z m 12.03666,0.01731 c -0.26067,-0.260671 -0.29054,-0.440662 -0.12526,-0.754674 0.15,-0.284975 0.26787,-0.350496 0.63363,-0.352219 0.61738,-0.0029 0.88863,0.591739 0.49703,1.089584 -0.26009,0.330661 -0.68473,0.337972 -1.0054,0.01731 z M 0.32460163,20.903607 c -0.12953,-0.197688 -0.13895,-0.289779 -0.0497,-0.485762 0.0935,-0.205222 0.16433,-0.237324 0.46787,-0.212067 0.29013997,0.02414 0.37491997,0.07906 0.44893997,0.290854 0.19152,0.547939 -0.54753997,0.894789 -0.86715997,0.406975 z m 12.00000037,0 c -0.12953,-0.197688 -0.13895,-0.289779 -0.0497,-0.485762 0.0935,-0.205222 0.16432,-0.237324 0.46786,-0.212067 0.29014,0.02414 0.37492,0.07906 0.44895,0.290854 0.19152,0.547939 -0.54754,0.894789 -0.86717,0.406975 z m 12,0 c -0.12953,-0.197688 -0.13895,-0.289779 -0.0496,-0.485762 0.0935,-0.205222 0.16432,-0.237324 0.46786,-0.212067 0.29014,0.02414 0.37492,0.07906 0.44895,0.290854 0.19152,0.547939 -0.54754,0.894789 -0.86717,0.406975 z m 12,0 c -0.12953,-0.197688 -0.13895,-0.289779 -0.0496,-0.485762 0.0935,-0.205222 0.16432,-0.237324 0.46786,-0.212067 0.29014,0.02414 0.37492,0.07906 0.44895,0.290854 0.19152,0.547939 -0.54754,0.894789 -0.86717,0.406975 z m 11.999996,0 c -0.12953,-0.197688 -0.138942,-0.289779 -0.04965,-0.485762 0.09351,-0.205222 0.164329,-0.237324 0.467869,-0.212067 0.290139,0.02414 0.374918,0.07906 0.448943,0.290854 0.191518,0.547939 -0.547537,0.894789 -0.867166,0.406975 z m 12,0 c -0.12953,-0.197688 -0.138942,-0.289779 -0.04965,-0.485762 0.09351,-0.205222 0.164329,-0.237324 0.467869,-0.212067 0.290139,0.02414 0.374918,0.07906 0.448943,0.290854 0.191518,0.547939 -0.547537,0.894789 -0.867166,0.406975 z m 12,0 c -0.12953,-0.197688 -0.138942,-0.289779 -0.04965,-0.485762 0.09351,-0.205222 0.164329,-0.237324 0.467869,-0.212067 0.290139,0.02414 0.374918,0.07906 0.448943,0.290854 0.191518,0.547939 -0.547537,0.894789 -0.867166,0.406975 z m 12,0 c -0.12953,-0.197688 -0.138942,-0.289779 -0.04965,-0.485762 0.09351,-0.205222 0.164329,-0.237324 0.467869,-0.212067 0.290139,0.02414 0.374918,0.07906 0.448943,0.290854 0.191518,0.547939 -0.547537,0.894789 -0.867166,0.406975 z m 12,0 c -0.129533,-0.197688 -0.138941,-0.289779 -0.04964,-0.485762 0.0935,-0.205222 0.164323,-0.237324 0.467865,-0.212067 0.290141,0.02414 0.374919,0.07906 0.448944,0.290854 0.19152,0.547939 -0.547536,0.894789 -0.867169,0.406975 z m 12.000002,0 c -0.12954,-0.197688 -0.13895,-0.289779 -0.0496,-0.485762 0.0935,-0.205222 0.16433,-0.237324 0.46787,-0.212067 0.29014,0.02414 0.37492,0.07906 0.44894,0.290854 0.19152,0.547939 -0.54753,0.894789 -0.86716,0.406975 z m 12,0 c -0.12954,-0.197688 -0.13895,-0.289779 -0.0496,-0.485762 0.0935,-0.205222 0.16433,-0.237324 0.46787,-0.212067 0.29014,0.02414 0.37492,0.07906 0.44894,0.290854 0.19152,0.547939 -0.54753,0.894789 -0.86716,0.406975 z M 0.49010163,8.8237059 c -0.15776,-0.190094 -0.0263,-0.444168 0.2299,-0.444168 0.1207,0 0.24643,0.07028 0.27939,0.156168 0.0672,0.175218 -0.0956,0.419832 -0.27939,0.419832 -0.0663,0 -0.16972,-0.05932 -0.2299,-0.131832 z m 12.00000037,0 c -0.15777,-0.190094 -0.0263,-0.444168 0.2299,-0.444168 0.1207,0 0.24643,0.07028 0.27939,0.156168 0.0672,0.175218 -0.0956,0.419832 -0.27939,0.419832 -0.0663,0 -0.16972,-0.05932 -0.2299,-0.131832 z m 12,0 c -0.15777,-0.190094 -0.0263,-0.444168 0.2299,-0.444168 0.1207,0 0.24643,0.07028 0.27939,0.156168 0.0672,0.175218 -0.0956,0.419832 -0.27939,0.419832 -0.0663,0 -0.16972,-0.05932 -0.2299,-0.131832 z m 12,0 c -0.15777,-0.190094 -0.0263,-0.444168 0.2299,-0.444168 0.1207,0 0.24643,0.07028 0.27939,0.156168 0.0672,0.175218 -0.0956,0.419832 -0.27939,0.419832 -0.0663,0 -0.16972,-0.05932 -0.2299,-0.131832 z m 11.999999,0 c -0.157764,-0.190094 -0.02626,-0.444168 0.229902,-0.444168 0.120702,0 0.246425,0.07028 0.279385,0.156168 0.06724,0.175218 -0.09555,0.419832 -0.279385,0.419832 -0.06627,0 -0.169725,-0.05932 -0.229902,-0.131832 z m 12,0 c -0.157764,-0.190094 -0.02626,-0.444168 0.229902,-0.444168 0.120702,0 0.246425,0.07028 0.279385,0.156168 0.06724,0.175218 -0.09555,0.419832 -0.279385,0.419832 -0.06627,0 -0.169725,-0.05932 -0.229902,-0.131832 z m 12,0 c -0.157764,-0.190094 -0.02626,-0.444168 0.229902,-0.444168 0.120702,0 0.246425,0.07028 0.279385,0.156168 0.06724,0.175218 -0.09555,0.419832 -0.279385,0.419832 -0.06627,0 -0.169725,-0.05932 -0.229902,-0.131832 z m 12,0 c -0.157764,-0.190094 -0.02626,-0.444168 0.229902,-0.444168 0.120702,0 0.246425,0.07028 0.279385,0.156168 0.06724,0.175218 -0.09555,0.419832 -0.279385,0.419832 -0.06627,0 -0.169725,-0.05932 -0.229902,-0.131832 z m 12.000001,0 c -0.157766,-0.190094 -0.02626,-0.444168 0.229901,-0.444168 0.120701,0 0.246422,0.07028 0.279389,0.156168 0.06724,0.175218 -0.09555,0.419832 -0.279389,0.419832 -0.06627,0 -0.169728,-0.05932 -0.229901,-0.131832 z m 11.999998,0 c -0.15777,-0.190094 -0.0263,-0.444168 0.2299,-0.444168 0.1207,0 0.24642,0.07028 0.27939,0.156168 0.0672,0.175218 -0.0956,0.419832 -0.27939,0.419832 -0.0663,0 -0.16973,-0.05932 -0.2299,-0.131832 z m 12,0 c -0.15777,-0.190094 -0.0263,-0.444168 0.2299,-0.444168 0.1207,0 0.24642,0.07028 0.27939,0.156168 0.0672,0.175218 -0.0956,0.419832 -0.27939,0.419832 -0.0663,0 -0.16973,-0.05932 -0.2299,-0.131832 z"
       id="path194" />
  </g>
</svg>
